<svg width="204" height="43" viewBox="0 0 204 43" fill="none" xmlns="http://www.w3.org/2000/svg">
<g clip-path="url(#clip0_78_323)">
<path d="M58.5315 27.4629C55.2784 33.9301 45.519 31.6269 45.519 24.3984V10.7353H48.2907V18.9202C54.0748 14.587 61.7651 21.0022 58.5315 27.4629ZM56.5146 24.3984C56.5146 23.5852 56.2734 22.7902 55.8216 22.114C55.3698 21.4378 54.7276 20.9107 53.9762 20.5995C53.2249 20.2883 52.3981 20.2068 51.6004 20.3655C50.8028 20.5242 50.0701 20.9158 49.4951 21.4909C48.92 22.0659 48.5284 22.7986 48.3697 23.5962C48.2111 24.3939 48.2925 25.2207 48.6037 25.972C48.9149 26.7234 49.442 27.3656 50.1182 27.8174C50.7944 28.2692 51.5894 28.5104 52.4027 28.5104C52.9429 28.5113 53.478 28.4055 53.9772 28.1991C54.4765 27.9928 54.9302 27.6899 55.3122 27.3079C55.6942 26.9259 55.997 26.4723 56.2033 25.973C56.4097 25.4738 56.5155 24.9387 56.5146 24.3984Z" fill="white"/>
<path d="M64.2637 25.0946C64.3957 25.8679 64.7462 26.5873 65.2739 27.1679C65.8015 27.7485 66.4842 28.166 67.2414 28.3712C67.9986 28.5764 68.7987 28.5607 69.5473 28.326C70.2958 28.0913 70.9616 27.6473 71.4661 27.0465L74.1141 28.0289C73.3606 29.2435 72.2454 30.1913 70.9253 30.7393C69.6052 31.2873 68.1466 31.4079 66.7545 31.0841C65.3623 30.7603 64.1066 30.0084 63.1639 28.9341C62.2211 27.8597 61.6387 26.517 61.4985 25.0946C61.4734 24.8786 61.4604 24.6614 61.4595 24.444C61.4634 24.0909 61.4939 23.7385 61.5506 23.39C61.6002 23.0505 61.6763 22.7155 61.7783 22.388C61.9525 21.8361 62.1975 21.309 62.507 20.82C63.1949 19.6993 64.1914 18.8008 65.377 18.232C66.5626 17.6632 67.887 17.4484 69.1916 17.6132C70.4962 17.778 71.7256 18.3154 72.7326 19.1611C73.7395 20.0069 74.4812 21.125 74.8689 22.3815C75.0811 23.0461 75.1886 23.7398 75.1877 24.4375C75.1877 24.6717 75.1877 24.8994 75.1877 25.0881L64.2637 25.0946ZM64.7581 22.3555H71.8695C71.5384 21.7829 71.074 21.2986 70.5158 20.9437C69.9576 20.5888 69.3221 20.3739 68.6631 20.317C68.0041 20.2602 67.3411 20.3632 66.7304 20.6172C66.1197 20.8713 65.5793 21.2689 65.155 21.7764C65.0073 21.9584 64.8746 22.1521 64.7581 22.3555Z" fill="white"/>
<path d="M80.0412 21.6723C80.0412 21.8518 80.0765 22.0294 80.1452 22.1952C80.2138 22.361 80.3145 22.5116 80.4414 22.6385C80.5682 22.7653 80.7189 22.866 80.8846 22.9346C81.0504 23.0033 81.2281 23.0386 81.4075 23.0386H84.4459C84.9992 23.0166 85.5513 23.1066 86.069 23.3031C86.5867 23.4997 87.0594 23.7988 87.4586 24.1825C87.8579 24.5662 88.1756 25.0266 88.3925 25.5361C88.6095 26.0455 88.7214 26.5936 88.7214 27.1473C88.7214 27.7011 88.6095 28.2491 88.3925 28.7586C88.1756 29.2681 87.8579 29.7285 87.4586 30.1122C87.0594 30.4959 86.5867 30.795 86.069 30.9915C85.5513 31.1881 84.9992 31.2781 84.4459 31.256H78.265V28.5169H84.4459C84.8083 28.5169 85.1558 28.3729 85.412 28.1167C85.6683 27.8605 85.8122 27.513 85.8122 27.1506C85.8122 26.7882 85.6683 26.4407 85.412 26.1845C85.1558 25.9282 84.8083 25.7843 84.4459 25.7843H81.414C80.3526 25.742 79.3487 25.2907 78.6127 24.5248C77.8767 23.7589 77.4656 22.7378 77.4656 21.6756C77.4656 20.6133 77.8767 19.5923 78.6127 18.8264C79.3487 18.0605 80.3526 17.6091 81.414 17.5669H87.5949V20.306H81.414C81.234 20.3052 81.0557 20.3399 80.8891 20.4081C80.7226 20.4764 80.5712 20.5769 80.4437 20.7039C80.3161 20.8308 80.2149 20.9818 80.1458 21.148C80.0767 21.3141 80.0412 21.4923 80.0412 21.6723Z" fill="white"/>
<path d="M93.4637 17.5669H97.6082V20.2995H93.4962V24.4115C93.4962 24.9511 93.6026 25.4855 93.8093 25.984C94.0161 26.4826 94.3191 26.9354 94.701 27.3167C95.0829 27.6981 95.5362 28.0003 96.0351 28.2063C96.5339 28.4122 97.0685 28.5178 97.6082 28.5169V31.23C96.7088 31.2309 95.818 31.0544 94.9869 30.7109C94.1557 30.3673 93.4004 29.8632 92.7641 29.2276C92.1278 28.5919 91.6231 27.8371 91.2787 27.0062C90.9343 26.1754 90.7571 25.2848 90.7571 24.3854V10.6898H93.4962L93.4637 17.5669Z" fill="white"/>
<path d="M103.295 25.0295C103.294 25.8425 103.534 26.6374 103.986 27.3135C104.437 27.9896 105.079 28.5164 105.831 28.8272C106.582 29.138 107.408 29.2188 108.206 29.0593C109.003 28.8998 109.735 28.5072 110.308 27.9313L112.26 29.8832C111.302 30.8415 110.081 31.4942 108.752 31.7586C107.423 32.0231 106.046 31.8875 104.794 31.369C103.542 30.8505 102.472 29.9724 101.719 28.8457C100.966 27.719 100.564 26.3944 100.564 25.0393C100.564 23.6842 100.966 22.3596 101.719 21.2329C102.472 20.1062 103.542 19.2281 104.794 18.7096C106.046 18.1911 107.423 18.0555 108.752 18.32C110.081 18.5844 111.302 19.2371 112.26 20.1954L110.308 22.1473C109.736 21.5725 109.006 21.1803 108.21 21.0202C107.415 20.8601 106.59 20.9392 105.84 21.2476C105.089 21.556 104.447 22.0798 103.994 22.7529C103.541 23.426 103.298 24.2182 103.295 25.0295Z" fill="white"/>
<path d="M121.252 31.9132C119.897 31.9132 118.572 31.5112 117.445 30.7581C116.318 30.005 115.44 28.9346 114.922 27.6824C114.403 26.4301 114.268 25.0523 114.533 23.7231C114.798 22.394 115.451 21.1732 116.41 20.2153C117.369 19.2575 118.59 18.6055 119.919 18.3419C121.249 18.0782 122.627 18.2148 123.878 18.7344C125.13 19.2539 126.2 20.1331 126.952 21.2606C127.704 22.3881 128.104 23.7133 128.103 25.0686C128.101 26.8845 127.379 28.6254 126.094 29.9088C124.809 31.1923 123.068 31.9132 121.252 31.9132ZM121.252 29.174C122.065 29.1715 122.859 28.9279 123.534 28.4743C124.208 28.0206 124.733 27.3771 125.042 26.6252C125.351 25.8732 125.43 25.0465 125.27 24.2495C125.109 23.4526 124.716 22.7211 124.14 22.1476C123.563 21.5741 122.83 21.1843 122.032 21.0274C121.235 20.8706 120.408 20.9537 119.658 21.2663C118.907 21.5789 118.266 22.1069 117.816 22.7837C117.365 23.4605 117.126 24.2556 117.127 25.0686C117.127 25.6094 117.234 26.1448 117.441 26.6442C117.649 27.1436 117.953 27.597 118.336 27.9785C118.72 28.36 119.175 28.662 119.675 28.8671C120.175 29.0723 120.711 29.1766 121.252 29.174Z" fill="white"/>
<path d="M146.685 23.0191V31.9132H143.946V23.0191C143.916 22.4947 143.687 22.0014 143.305 21.6406C142.924 21.2798 142.418 21.0788 141.893 21.0788C141.368 21.0788 140.862 21.2798 140.481 21.6406C140.099 22.0014 139.87 22.4947 139.84 23.0191V31.9132H137.095V23.0191C137.065 22.4947 136.836 22.0014 136.454 21.6406C136.072 21.2798 135.567 21.0788 135.042 21.0788C134.517 21.0788 134.011 21.2798 133.63 21.6406C133.248 22.0014 133.019 22.4947 132.989 23.0191V31.9132H130.25V23.0191C130.248 22.0662 130.531 21.1344 131.062 20.3431C131.593 19.5517 132.348 18.9368 133.231 18.577C134.113 18.2172 135.083 18.1288 136.016 18.3233C136.948 18.5177 137.802 18.986 138.467 19.6684C139.133 18.986 139.986 18.5177 140.919 18.3233C141.852 18.1288 142.822 18.2172 143.704 18.577C144.587 18.9368 145.342 19.5517 145.873 20.3431C146.404 21.1344 146.686 22.0662 146.685 23.0191Z" fill="white"/>
<path d="M161.812 21.9846C165.065 28.4453 157.355 34.8605 151.571 30.5273V38.7447H148.832V25.0816C148.832 17.8206 158.578 15.5174 161.812 21.9846ZM159.795 25.0491C159.796 24.2355 159.556 23.4399 159.105 22.7628C158.654 22.0858 158.012 21.5577 157.261 21.2455C156.51 20.9333 155.683 20.8509 154.885 21.0088C154.087 21.1668 153.353 21.5579 152.778 22.1327C152.202 22.7075 151.81 23.4401 151.65 24.238C151.491 25.0358 151.572 25.8629 151.883 26.6146C152.194 27.3664 152.721 28.009 153.398 28.4611C154.074 28.9132 154.869 29.1545 155.683 29.1545C156.772 29.1545 157.817 28.7222 158.588 27.9524C159.359 27.1827 159.793 26.1385 159.795 25.0491Z" fill="white"/>
<path d="M178.448 18.2175V25.0621C178.458 26.6122 177.943 28.12 176.988 29.3408C176.032 30.5617 174.692 31.424 173.186 31.7878C171.679 32.1516 170.093 31.9957 168.686 31.3453C167.279 30.6949 166.133 29.5881 165.434 28.2046C164.734 26.821 164.523 25.2419 164.834 23.7232C165.145 22.2045 165.96 20.8355 167.147 19.8381C168.334 18.8407 169.822 18.2736 171.372 18.2286C172.921 18.1836 174.441 18.6635 175.683 19.5903V18.2175H178.448ZM171.591 29.174C172.404 29.174 173.199 28.9329 173.875 28.481C174.552 28.0292 175.079 27.387 175.39 26.6356C175.701 25.8843 175.782 25.0575 175.624 24.2599C175.465 23.4622 175.074 22.7296 174.498 22.1545C173.923 21.5794 173.191 21.1878 172.393 21.0291C171.595 20.8705 170.769 20.9519 170.017 21.2631C169.266 21.5744 168.624 22.1014 168.172 22.7776C167.72 23.4538 167.479 24.2488 167.479 25.0621C167.479 26.1526 167.912 27.1985 168.683 27.9697C169.454 28.7408 170.5 29.174 171.591 29.174Z" fill="white"/>
<path d="M183.36 19.5903C184.529 18.6732 185.98 18.1903 187.466 18.224V20.9631C186.927 20.9623 186.392 21.0679 185.894 21.2739C185.395 21.4799 184.942 21.7823 184.561 22.1637C184.18 22.5451 183.877 22.998 183.671 23.4965C183.465 23.995 183.36 24.5292 183.36 25.0686V31.9197H180.621V18.2175H183.36V19.5903Z" fill="white"/>
<path d="M192.437 25.7517C192.569 26.5251 192.919 27.2445 193.447 27.825C193.975 28.4056 194.657 28.8231 195.414 29.0284C196.172 29.2336 196.972 29.2179 197.72 28.9831C198.469 28.7484 199.135 28.3044 199.639 27.7036L202.287 28.6861C201.534 29.9006 200.418 30.8485 199.098 31.3965C197.778 31.9445 196.32 32.065 194.928 31.7412C193.535 31.4174 192.28 30.6655 191.337 29.5912C190.394 28.5169 189.812 27.1742 189.672 25.7517C189.647 25.5357 189.634 25.3185 189.633 25.1011C189.636 24.748 189.667 24.3957 189.724 24.0471C189.773 23.7077 189.849 23.3727 189.951 23.0451C190.387 21.6535 191.255 20.4372 192.43 19.5737C193.605 18.7102 195.025 18.2445 196.484 18.2445C197.942 18.2445 199.362 18.7102 200.537 19.5737C201.712 20.4372 202.58 21.6535 203.016 23.0451C203.228 23.7098 203.336 24.4034 203.335 25.1011C203.334 25.3185 203.321 25.5357 203.296 25.7517H192.437ZM192.931 23.0126H200.036C199.706 22.44 199.242 21.9557 198.684 21.6008C198.127 21.2459 197.492 21.0308 196.833 20.974C196.175 20.9171 195.512 21.0201 194.902 21.2742C194.292 21.5284 193.752 21.9261 193.328 22.4335C193.18 22.6155 193.048 22.8092 192.931 23.0126Z" fill="white"/>
<path d="M35.7988 8.30871L22.8188 0.820013C21.8891 0.283233 20.8344 0.000640869 19.7609 0.000640869C18.6873 0.000640869 17.6327 0.283233 16.7029 0.820013L3.72298 8.30871C2.7928 8.84651 2.02053 9.61963 1.48376 10.5504C0.946993 11.4812 0.66463 12.5368 0.66504 13.6113V28.6277C0.665771 29.7011 0.948675 30.7554 1.48539 31.6849C2.0221 32.6145 2.79375 33.3866 3.72298 33.9238L6.28644 35.4007L3.09187 42.1998L11.1987 38.2049L16.7029 41.38C17.6327 41.9168 18.6873 42.1993 19.7609 42.1993C20.8344 42.1993 21.8891 41.9168 22.8188 41.38L35.7988 33.8913C36.722 33.356 37.4893 32.5887 38.0246 31.6654C38.5599 30.7421 38.8445 29.6949 38.8502 28.6277V13.6634C38.8605 12.5807 38.5835 11.5147 38.0474 10.5741C37.5114 9.63341 36.7354 8.85172 35.7988 8.30871Z" fill="#0C70C1"/>
<path fill-rule="evenodd" clip-rule="evenodd" d="M23.9768 31.8286C25.2291 31.8309 26.4502 31.4382 27.4664 30.7065C28.4827 29.9747 29.2423 28.9412 29.6372 27.7528C30.0321 26.5644 30.0422 25.2818 29.6661 24.0873C29.29 22.8929 28.5468 21.8475 27.5423 21.0998C28.5468 20.3521 29.29 19.3066 29.6661 18.1122C30.0422 16.9177 30.0321 15.6351 29.6372 14.4467C29.2423 13.2584 28.4827 12.2248 27.4664 11.4931C26.4502 10.7613 25.2291 10.3687 23.9768 10.371H10.0339V31.8416H23.9768M19.5721 19.9091V22.2904H23.9768C24.9259 22.2904 25.8361 22.6674 26.5072 23.3385C27.1783 24.0096 27.5553 24.9198 27.5553 25.8689C27.5553 26.8179 27.1783 27.7281 26.5072 28.3992C25.8361 29.0703 24.9259 29.4473 23.9768 29.4473H12.4152V12.7588H23.9768C24.9259 12.7588 25.8361 13.1358 26.5072 13.8069C27.1783 14.4779 27.5553 15.3881 27.5553 16.3372C27.5553 17.2863 27.1783 18.1964 26.5072 18.8675C25.8361 19.5386 24.9259 19.9156 23.9768 19.9156L19.5721 19.9091ZM17.1843 17.5213H23.9768C24.2926 17.5213 24.5955 17.3959 24.8187 17.1726C25.042 16.9493 25.1675 16.6465 25.1675 16.3307C25.1675 16.0149 25.042 15.7121 24.8187 15.4888C24.5955 15.2655 24.2926 15.14 23.9768 15.14H14.7965V27.0595H23.9768C24.2926 27.0595 24.5955 26.9341 24.8187 26.7108C25.042 26.4875 25.1675 26.1846 25.1675 25.8689C25.1675 25.5531 25.042 25.2502 24.8187 25.0269C24.5955 24.8037 24.2926 24.6782 23.9768 24.6782H17.1843V17.5213Z" fill="white"/>
</g>
<defs>
<clipPath id="clip0_78_323">
<rect width="202.67" height="42.1995" fill="white" transform="translate(0.665039)"/>
</clipPath>
</defs>
</svg>
