<svg width="203" height="44" viewBox="0 0 203 44" fill="none" xmlns="http://www.w3.org/2000/svg">
<g clip-path="url(#clip0_78_12)">
<g clip-path="url(#clip1_78_12)">
<path d="M57.8665 28.3631C54.6134 34.8303 44.854 32.5271 44.854 25.2986V11.6355H47.6257V19.8204C53.4097 15.4872 61.1001 21.9024 57.8665 28.3631ZM55.8496 25.2986C55.8496 24.4854 55.6084 23.6904 55.1566 23.0141C54.7047 22.3379 54.0626 21.8109 53.3112 21.4997C52.5598 21.1885 51.7331 21.107 50.9354 21.2657C50.1378 21.4243 49.4051 21.816 48.83 22.391C48.255 22.9661 47.8633 23.6988 47.7047 24.4964C47.546 25.2941 47.6274 26.1208 47.9387 26.8722C48.2499 27.6236 48.7769 28.2658 49.4531 28.7176C50.1293 29.1694 50.9243 29.4106 51.7376 29.4106C52.2778 29.4114 52.8129 29.3057 53.3122 29.0993C53.8115 28.893 54.2651 28.5901 54.6471 28.2081C55.0291 27.8261 55.332 27.3725 55.5383 26.8732C55.7446 26.3739 55.8504 25.8389 55.8496 25.2986Z" fill="#052F51"/>
<path d="M63.5986 25.9948C63.7307 26.7681 64.0812 27.4875 64.6088 28.0681C65.1364 28.6487 65.8191 29.0662 66.5763 29.2714C67.3335 29.4766 68.1336 29.461 68.8822 29.2262C69.6308 28.9915 70.2966 28.5475 70.801 27.9467L73.4491 28.9291C72.6955 30.1437 71.5803 31.0915 70.2603 31.6395C68.9402 32.1875 67.4816 32.3081 66.0894 31.9843C64.6973 31.6605 63.4416 30.9086 62.4988 29.8343C61.5561 28.76 60.9737 27.4172 60.8335 25.9948C60.8084 25.7788 60.7954 25.5616 60.7944 25.3442C60.7984 24.9911 60.8288 24.6388 60.8855 24.2902C60.9352 23.9508 61.0113 23.6158 61.1132 23.2882C61.2875 22.7363 61.5324 22.2093 61.8419 21.7202C62.5299 20.5995 63.5263 19.701 64.7119 19.1322C65.8975 18.5635 67.222 18.3486 68.5266 18.5134C69.8312 18.6782 71.0606 19.2156 72.0675 20.0614C73.0744 20.9071 73.8162 22.0252 74.2038 23.2817C74.4161 23.9464 74.5236 24.64 74.5226 25.3377C74.5226 25.5719 74.5226 25.7996 74.5226 25.9883L63.5986 25.9948ZM64.0931 23.2557H71.2044C70.8733 22.6831 70.409 22.1988 69.8508 21.8439C69.2926 21.4891 68.657 21.2741 67.998 21.2173C67.339 21.1604 66.676 21.2634 66.0653 21.5175C65.4546 21.7715 64.9142 22.1692 64.49 22.6766C64.3423 22.8586 64.2096 23.0523 64.0931 23.2557Z" fill="#052F51"/>
<path d="M79.3761 22.5725C79.3761 22.7519 79.4115 22.9296 79.4801 23.0954C79.5488 23.2611 79.6494 23.4117 79.7763 23.5386C79.9032 23.6655 80.0538 23.7661 80.2196 23.8348C80.3854 23.9035 80.563 23.9388 80.7424 23.9388H83.7809C84.3342 23.9168 84.8863 24.0067 85.4039 24.2033C85.9216 24.3999 86.3943 24.699 86.7936 25.0827C87.1929 25.4664 87.5105 25.9267 87.7275 26.4362C87.9445 26.9457 88.0563 27.4937 88.0563 28.0475C88.0563 28.6012 87.9445 29.1493 87.7275 29.6588C87.5105 30.1682 87.1929 30.6286 86.7936 31.0123C86.3943 31.396 85.9216 31.6951 85.4039 31.8917C84.8863 32.0882 84.3342 32.1782 83.7809 32.1562H77.5999V29.4171H83.7809C84.1432 29.4171 84.4908 29.2731 84.747 29.0169C85.0032 28.7606 85.1472 28.4131 85.1472 28.0507C85.1472 27.6884 85.0032 27.3409 84.747 27.0846C84.4908 26.8284 84.1432 26.6844 83.7809 26.6844H80.749C79.6876 26.6422 78.6837 26.1908 77.9476 25.4249C77.2116 24.659 76.8005 23.638 76.8005 22.5757C76.8005 21.5135 77.2116 20.4925 77.9476 19.7266C78.6837 18.9606 79.6876 18.5093 80.749 18.467H86.9299V21.2062H80.749C80.569 21.2053 80.3906 21.24 80.2241 21.3083C80.0576 21.3766 79.9062 21.4771 79.7786 21.604C79.6511 21.731 79.5498 21.8819 79.4808 22.0481C79.4117 22.2143 79.3761 22.3925 79.3761 22.5725Z" fill="#052F51"/>
<path d="M92.7986 18.4672H96.9431V21.1998H92.8312V25.3118C92.8312 25.8515 92.9376 26.3858 93.1443 26.8844C93.351 27.3829 93.654 27.8357 94.0359 28.2171C94.4178 28.5984 94.8712 28.9006 95.37 29.1066C95.8689 29.3125 96.4034 29.4181 96.9431 29.4172V32.1303C96.0437 32.1312 95.153 31.9548 94.3218 31.6112C93.4906 31.2676 92.7353 30.7636 92.0991 30.1279C91.4628 29.4922 90.9581 28.7374 90.6137 27.9066C90.2693 27.0757 90.092 26.1851 90.092 25.2857V11.5901H92.8312L92.7986 18.4672Z" fill="#052F51"/>
<path d="M102.63 25.9297C102.629 26.7427 102.869 27.5376 103.321 28.2137C103.772 28.8898 104.414 29.4166 105.166 29.7274C105.917 30.0382 106.743 30.119 107.541 29.9595C108.338 29.8 109.07 29.4074 109.643 28.8315L111.595 30.7834C110.637 31.7417 109.416 32.3943 108.087 32.6588C106.758 32.9233 105.381 32.7877 104.129 32.2692C102.877 31.7507 101.807 30.8726 101.054 29.7459C100.301 28.6192 99.8992 27.2945 99.8992 25.9395C99.8992 24.5844 100.301 23.2597 101.054 22.133C101.807 21.0064 102.877 20.1282 104.129 19.6097C105.381 19.0912 106.758 18.9557 108.087 19.2201C109.416 19.4846 110.637 20.1373 111.595 21.0956L109.643 23.0474C109.071 22.4727 108.341 22.0805 107.545 21.9204C106.75 21.7603 105.925 21.8394 105.175 22.1478C104.424 22.4562 103.782 22.98 103.329 23.6531C102.876 24.3262 102.633 25.1184 102.63 25.9297Z" fill="#052F51"/>
<path d="M120.587 32.8135C119.231 32.8135 117.907 32.4115 116.78 31.6584C115.653 30.9053 114.775 29.835 114.256 28.5827C113.738 27.3305 113.603 25.9526 113.868 24.6234C114.133 23.2943 114.786 22.0735 115.745 21.1157C116.703 20.1578 117.925 19.5058 119.254 19.2422C120.584 18.9786 121.961 19.1152 123.213 19.6347C124.465 20.1542 125.534 21.0334 126.286 22.1609C127.038 23.2884 127.439 24.6136 127.438 25.9689C127.436 27.7848 126.713 29.5257 125.429 30.8092C124.144 32.0926 122.403 32.8135 120.587 32.8135ZM120.587 30.0744C121.4 30.0718 122.194 29.8283 122.868 29.3746C123.543 28.9209 124.068 28.2774 124.377 27.5255C124.686 26.7735 124.765 25.9468 124.605 25.1499C124.444 24.3529 124.051 23.6215 123.474 23.048C122.898 22.4745 122.165 22.0846 121.367 21.9278C120.569 21.7709 119.743 21.854 118.993 22.1666C118.242 22.4792 117.601 23.0073 117.151 23.684C116.7 24.3608 116.46 25.1559 116.462 25.9689C116.462 26.5097 116.569 27.0452 116.776 27.5445C116.984 28.0439 117.288 28.4973 117.671 28.8788C118.054 29.2603 118.509 29.5623 119.01 29.7675C119.51 29.9726 120.046 30.0769 120.587 30.0744Z" fill="#052F51"/>
<path d="M146.02 23.9194V32.8134H143.281V23.9194C143.251 23.3949 143.022 22.9017 142.64 22.5409C142.259 22.18 141.753 21.979 141.228 21.979C140.703 21.979 140.197 22.18 139.816 22.5409C139.434 22.9017 139.205 23.3949 139.175 23.9194V32.8134H136.43V23.9194C136.4 23.3949 136.171 22.9017 135.789 22.5409C135.407 22.18 134.902 21.979 134.377 21.979C133.852 21.979 133.346 22.18 132.964 22.5409C132.583 22.9017 132.354 23.3949 132.324 23.9194V32.8134H129.585V23.9194C129.583 22.9664 129.866 22.0347 130.397 21.2433C130.928 20.452 131.683 19.8371 132.565 19.4773C133.448 19.1175 134.418 19.0291 135.351 19.2235C136.283 19.4179 137.137 19.8863 137.802 20.5686C138.468 19.8863 139.321 19.4179 140.254 19.2235C141.187 19.0291 142.157 19.1175 143.039 19.4773C143.922 19.8371 144.677 20.452 145.208 21.2433C145.739 22.0347 146.021 22.9664 146.02 23.9194Z" fill="#052F51"/>
<path d="M161.147 22.8848C164.4 29.3456 156.69 35.7607 150.906 31.4276V39.6449H148.167V25.9818C148.167 18.7208 157.913 16.4176 161.147 22.8848ZM159.13 25.9493C159.131 25.1357 158.891 24.3401 158.44 23.663C157.989 22.986 157.347 22.4579 156.596 22.1457C155.845 21.8335 155.018 21.7511 154.22 21.909C153.422 22.067 152.688 22.4581 152.113 23.0329C151.537 23.6077 151.145 24.3404 150.985 25.1382C150.826 25.936 150.907 26.7631 151.218 27.5149C151.529 28.2666 152.056 28.9092 152.733 29.3613C153.409 29.8134 154.204 30.0547 155.018 30.0547C156.107 30.0547 157.152 29.6224 157.923 28.8527C158.694 28.0829 159.128 27.0387 159.13 25.9493Z" fill="#052F51"/>
<path d="M177.783 19.1177V25.9623C177.792 27.5124 177.278 29.0202 176.322 30.241C175.367 31.4619 174.027 32.3241 172.52 32.688C171.013 33.0518 169.428 32.8959 168.021 32.2455C166.614 31.595 165.467 30.4883 164.768 29.1048C164.069 27.7212 163.858 26.142 164.169 24.6234C164.48 23.1047 165.295 21.7356 166.482 20.7383C167.668 19.7409 169.157 19.1737 170.707 19.1288C172.256 19.0838 173.775 19.5636 175.018 20.4905V19.1177H177.783ZM170.926 30.0742C171.739 30.0742 172.534 29.833 173.21 29.3812C173.886 28.9294 174.413 28.2872 174.725 27.5358C175.036 26.7845 175.117 25.9577 174.959 25.16C174.8 24.3624 174.408 23.6297 173.833 23.0547C173.258 22.4796 172.525 22.088 171.728 21.9293C170.93 21.7707 170.103 21.8521 169.352 22.1633C168.601 22.4745 167.958 23.0016 167.507 23.6778C167.055 24.354 166.814 25.149 166.814 25.9623C166.814 27.0528 167.247 28.0987 168.018 28.8698C168.789 29.641 169.835 30.0742 170.926 30.0742Z" fill="#052F51"/>
<path d="M182.695 20.4905C183.864 19.5734 185.315 19.0905 186.801 19.1242V21.8633C186.261 21.8625 185.727 21.9681 185.229 22.1741C184.73 22.3801 184.277 22.6825 183.896 23.0639C183.515 23.4453 183.212 23.8982 183.006 24.3967C182.8 24.8951 182.695 25.4294 182.695 25.9688V32.8198H179.956V19.1177H182.695V20.4905Z" fill="#052F51"/>
<path d="M191.772 26.652C191.904 27.4254 192.254 28.1448 192.782 28.7253C193.31 29.3059 193.992 29.7234 194.749 29.9287C195.507 30.1339 196.307 30.1182 197.055 29.8834C197.804 29.6487 198.47 29.2047 198.974 28.6039L201.622 29.5864C200.869 30.8009 199.753 31.7488 198.433 32.2968C197.113 32.8447 195.655 32.9653 194.263 32.6415C192.87 32.3177 191.615 31.5658 190.672 30.4915C189.729 29.4172 189.147 28.0745 189.007 26.652C188.982 26.436 188.969 26.2188 188.968 26.0014C188.971 25.6483 189.002 25.296 189.059 24.9474C189.108 24.608 189.184 24.273 189.286 23.9454C189.722 22.5538 190.59 21.3375 191.765 20.474C192.94 19.6105 194.36 19.1448 195.819 19.1448C197.277 19.1448 198.697 19.6105 199.872 20.474C201.047 21.3375 201.915 22.5538 202.351 23.9454C202.563 24.6101 202.671 25.3037 202.67 26.0014C202.669 26.2188 202.656 26.436 202.631 26.652H191.772ZM192.266 23.9129H199.371C199.041 23.3403 198.577 22.856 198.019 22.5011C197.462 22.1462 196.827 21.9311 196.168 21.8743C195.509 21.8174 194.847 21.9204 194.237 22.1745C193.626 22.4287 193.087 22.8264 192.663 23.3338C192.515 23.5158 192.383 23.7095 192.266 23.9129Z" fill="#052F51"/>
<path d="M35.1338 9.20894L22.1538 1.72025C21.2241 1.18347 20.1694 0.900879 19.0958 0.900879C18.0223 0.900879 16.9676 1.18347 16.0379 1.72025L3.05794 9.20894C2.12776 9.74675 1.35549 10.5199 0.818721 11.4507C0.281954 12.3814 -0.000409397 13.4371 4.45521e-07 14.5115V29.528C0.00073178 30.6013 0.283636 31.6556 0.820347 32.5852C1.35706 33.5147 2.12871 34.2868 3.05794 34.8241L5.6214 36.301L2.42683 43.1L10.5336 39.1052L16.0379 42.2802C16.9676 42.817 18.0223 43.0996 19.0958 43.0996C20.1694 43.0996 21.2241 42.817 22.1538 42.2802L35.1338 34.7915C36.057 34.2562 36.8243 33.4889 37.3596 32.5656C37.8948 31.6423 38.1794 30.5952 38.1852 29.528V14.5636C38.1954 13.481 37.9184 12.415 37.3824 11.4743C36.8463 10.5336 36.0704 9.75196 35.1338 9.20894Z" fill="#0C70C1"/>
<path fill-rule="evenodd" clip-rule="evenodd" d="M23.3118 32.7289C24.5641 32.7312 25.7852 32.3385 26.8014 31.6068C27.8176 30.875 28.5772 29.8415 28.9721 28.6531C29.3671 27.4647 29.3772 26.1821 29.0011 24.9876C28.625 23.7932 27.8818 22.7478 26.8772 22.0001C27.8818 21.2524 28.625 20.2069 29.0011 19.0125C29.3772 17.818 29.3671 16.5354 28.9721 15.347C28.5772 14.1587 27.8176 13.1251 26.8014 12.3933C25.7852 11.6616 24.5641 11.269 23.3118 11.2713H9.3689V32.7419H23.3118M18.9071 20.8094V23.1907H23.3118C24.2609 23.1907 25.171 23.5677 25.8421 24.2388C26.5132 24.9099 26.8902 25.8201 26.8902 26.7691C26.8902 27.7182 26.5132 28.6284 25.8421 29.2995C25.171 29.9706 24.2609 30.3476 23.3118 30.3476H11.7502V13.659H23.3118C24.2609 13.659 25.171 14.0361 25.8421 14.7071C26.5132 15.3782 26.8902 16.2884 26.8902 17.2375C26.8902 18.1865 26.5132 19.0967 25.8421 19.7678C25.171 20.4389 24.2609 20.8159 23.3118 20.8159L18.9071 20.8094ZM16.5193 18.4216H23.3118C23.6276 18.4216 23.9304 18.2962 24.1537 18.0729C24.377 17.8496 24.5024 17.5468 24.5024 17.231C24.5024 16.9152 24.377 16.6124 24.1537 16.3891C23.9304 16.1658 23.6276 16.0403 23.3118 16.0403H14.1315V27.9598H23.3118C23.6276 27.9598 23.9304 27.8343 24.1537 27.611C24.377 27.3878 24.5024 27.0849 24.5024 26.7691C24.5024 26.4534 24.377 26.1505 24.1537 25.9272C23.9304 25.7039 23.6276 25.5785 23.3118 25.5785H16.5193V18.4216Z" fill="white"/>
</g>
</g>
<defs>
<clipPath id="clip0_78_12">
<rect width="202.67" height="42.1995" fill="white" transform="translate(0 0.900146)"/>
</clipPath>
<clipPath id="clip1_78_12">
<rect width="202.67" height="42.1995" fill="white" transform="translate(0 0.900146)"/>
</clipPath>
</defs>
</svg>
