<svg width="68" height="67" viewBox="0 0 68 67" fill="none" xmlns="http://www.w3.org/2000/svg">
<circle cx="34" cy="33.5" r="33" stroke="#131313"/>
<path d="M52.875 53.3438C52.4812 53.3438 52.2187 53.0813 52.2187 52.6875C52.2187 51.1125 51.5625 48.0938 46.9031 45.5344C46.05 45.075 45 44.6813 43.8187 44.2219C40.9968 43.1719 37.7156 41.925 37.7156 39.3V36.675C37.7156 36.2813 37.9781 36.0188 38.3718 36.0188C38.7656 36.0188 39.0281 36.2813 39.0281 36.675V39.3C39.0281 41.0063 41.7187 42.0563 44.2781 43.0407C45.4593 43.5 46.5749 43.8938 47.4937 44.4188C52.7437 47.3063 53.5312 50.85 53.5312 52.6875C53.5312 53.0813 53.2687 53.3438 52.875 53.3438Z" fill="black"/>
<path d="M16.125 53.3438C15.7312 53.3438 15.4688 53.0813 15.4688 52.6875C15.4688 50.85 16.2563 47.2407 21.4406 44.4188C22.3594 43.8938 23.475 43.5 24.6562 43.0407C27.2156 42.0563 29.9062 41.0719 29.9062 39.3V36.675C29.9062 36.2813 30.1687 36.0188 30.5625 36.0188C30.9563 36.0188 31.2188 36.2813 31.2188 36.675V39.3C31.2188 41.925 28.0031 43.1719 25.1156 44.2219C24 44.6813 22.8844 45.075 22.0312 45.5344C17.4375 48.0938 16.7812 51.1125 16.7812 52.6875C16.7812 53.0813 16.5188 53.3438 16.125 53.3438Z" fill="black"/>
<path d="M34.5001 49.4062C30.5626 49.4062 26.9532 47.1094 25.3782 43.5C25.2469 43.1719 25.3782 42.7781 25.7063 42.6469C26.0344 42.5156 26.4282 42.6469 26.5594 42.975C27.9376 46.0594 31.0876 48.0937 34.5001 48.0937C37.9126 48.0937 41.0626 46.0594 42.4407 42.975C42.5719 42.6469 42.9657 42.5156 43.2938 42.6469C43.6219 42.7781 43.7532 43.1719 43.6219 43.5C42.0469 47.1094 38.4376 49.4062 34.5001 49.4062Z" fill="black"/>
<path d="M34.5 38.9062C31.0219 38.9062 27.675 35.625 26.6906 31.425C25.7719 31.0968 24.6562 30.1125 24.6562 27.75C24.6562 27.1593 24.7219 26.5687 24.9187 26.1093C25.1156 25.5187 25.6406 25.125 26.2969 25.0593C28.0688 24.8625 28.5937 23.4843 29.1844 21.45C29.5781 20.0062 30.0375 18.4968 31.5469 18.4968C32.3344 18.4968 32.9906 18.7593 33.45 18.9562C33.7781 18.6937 34.3687 18.4968 35.3531 18.4968C36.8625 18.4968 37.9125 20.0062 39.0938 21.6468C40.2094 23.2218 41.3906 24.8625 42.8344 25.0593C43.425 25.125 43.8844 25.5187 44.1469 26.0437C44.2781 26.5687 44.3438 27.0937 44.3438 27.75C44.3438 30.1125 43.1625 31.0968 42.3094 31.425C41.325 35.625 37.9781 38.9062 34.5 38.9062ZM26.4281 26.4375C26.2969 26.4375 26.2312 26.5031 26.1656 26.6343C26.0344 26.8968 25.9688 27.2906 25.9688 27.75C25.9688 30.0468 27.2813 30.2437 27.3469 30.2437C27.6094 30.2437 27.8719 30.5062 27.9375 30.7687C28.725 34.9687 31.9406 37.5937 34.5 37.5937C37.0594 37.5937 40.275 34.9687 41.0625 30.7687C41.1281 30.5062 41.325 30.2437 41.6531 30.2437C41.7844 30.2437 43.0312 29.9812 43.0312 27.75C43.0312 27.1593 42.9 26.8312 42.8344 26.6343C42.7688 26.5031 42.7031 26.4375 42.5719 26.4375C40.5375 26.175 39.1594 24.2062 37.9125 22.5C36.9938 21.2531 36.075 19.9406 35.2875 19.9406C34.3031 19.9406 34.0406 20.2687 34.0406 20.2687C33.975 20.4 33.8438 20.5312 33.6469 20.5312C33.45 20.5968 33.2531 20.5312 33.1219 20.4C33.1219 20.4 32.4656 19.875 31.5469 19.875C31.0875 19.875 30.825 20.6625 30.4312 21.9093C29.9062 23.6812 29.1844 26.175 26.4281 26.4375Z" fill="black"/>
<path d="M45.0657 38.9062C42.7032 38.9062 41.7844 38.4469 41.7188 38.4469C41.3907 38.3156 41.2594 37.9219 41.4563 37.5938C41.5876 37.2656 41.9813 37.1344 42.3094 37.3312C42.6376 37.5281 43.0969 37.6594 45.0657 37.6594C46.9688 37.6594 47.6251 36.2812 47.6251 35.0344C47.6251 33.0656 46.6407 30.9656 46.1813 29.9812C45.7876 29.1281 45.8532 28.0781 45.9188 27.0281C45.9844 26.0437 46.0501 25.0594 45.7876 24.075C45.4594 22.7625 44.6063 21.7781 43.8188 20.925C43.4251 20.5312 43.0969 20.1375 42.8344 19.7438C42.5719 19.35 42.3094 18.825 42.0469 18.2344C41.1938 16.2656 40.1438 13.9688 37.1251 13.9688C34.6313 13.9688 33.7126 15.0187 33.7126 15.0187C33.5157 15.2812 33.0563 15.3469 32.7938 15.0844C32.5313 14.8875 32.4657 14.4281 32.6626 14.1656C32.7282 14.1656 33.9094 12.6562 37.1251 12.6562C40.9969 12.6562 42.3751 15.6094 43.2938 17.5781C43.5563 18.1031 43.7532 18.5625 43.9501 18.825C44.2126 19.1531 44.5407 19.5469 44.8688 19.875C45.7219 20.8594 46.7719 21.975 47.1657 23.6156C47.4282 24.7969 47.3626 25.9781 47.2969 26.9625C47.2313 27.9469 47.1657 28.7344 47.4282 29.325C47.9532 30.4406 48.9376 32.6719 48.9376 34.9031C48.9376 36.9375 47.7563 38.9062 45.0657 38.9062Z" fill="black"/>
<path d="M23.9344 38.9062C21.2437 38.9062 20.0625 36.9375 20.0625 34.9688C20.0625 32.7375 21.1125 30.4406 21.5719 29.3906C21.8344 28.8656 21.7687 28.0125 21.7031 27.0281C21.6375 25.9781 21.5719 24.8625 21.8344 23.6812C22.2281 21.975 23.2125 20.925 24.1313 19.9406C24.4594 19.5469 24.7875 19.2188 25.05 18.8906C25.2469 18.5625 25.5094 18.1031 25.7063 17.6438C26.4938 15.8719 27.675 13.3125 31.2188 13.3125C32.3344 13.3125 33.45 13.9688 33.5156 14.1C33.8438 14.2969 33.9094 14.6906 33.7125 15.0187C33.5156 15.3469 33.1219 15.4125 32.7937 15.2156C32.5969 15.0188 31.8094 14.625 31.2188 14.625C28.5281 14.625 27.675 16.4625 26.8875 18.1687C26.625 18.6937 26.4281 19.2188 26.1 19.6125C25.7719 20.0063 25.4438 20.4 25.1156 20.7937C24.3281 21.7125 23.475 22.6313 23.1469 23.9438C22.95 24.9281 22.95 25.9781 23.0156 26.8969C23.0812 28.0125 23.1469 28.9969 22.7531 29.85C22.3594 30.9 21.375 33 21.375 34.9688C21.375 36.2156 22.0312 37.5938 23.9344 37.5938C25.9687 37.5938 26.6906 37.2656 26.7563 37.2656C27.0844 37.1344 27.4781 37.2656 27.6094 37.5938C27.7406 37.9219 27.6094 38.3156 27.3469 38.4469C27.2156 38.4469 26.2969 38.9062 23.9344 38.9062Z" fill="black"/>
</svg>
