<svg width="120" height="120" viewBox="0 0 120 120" fill="none" xmlns="http://www.w3.org/2000/svg">
<g id="thumbs-up 1">
<g id="Group">
<path id="Vector" fill-rule="evenodd" clip-rule="evenodd" d="M89.2287 82.6341H86.7486C86.1092 82.6341 85.5802 83.1588 85.5802 83.8069C85.5802 84.454 86.1092 84.9785 86.7486 84.9785C89.0853 84.9785 90.9921 86.8777 90.9921 89.2132C90.9921 91.5478 89.0853 93.4479 86.7486 93.4479H83.7394C83.1 93.4479 82.5711 93.9724 82.5711 94.6195C82.5711 95.2676 83.1 95.7912 83.7394 95.7912C86.0761 95.7912 87.983 97.6913 87.983 100.026C87.983 102.361 86.0761 104.261 83.7394 104.261H80.9949C80.3555 104.261 79.8265 104.785 79.8265 105.433C79.8265 106.08 80.3557 106.605 80.9949 106.605C83.3316 106.605 85.2385 108.504 85.2385 110.84C85.2385 113.174 83.3316 115.074 80.9949 115.074H55.7874C51.0258 115.074 46.0988 115.071 43.6519 110.6V78.1711C43.6519 77.5284 43.5525 76.909 43.3763 76.3226C45.1067 73.5527 46.8814 72.0129 48.7552 70.3915C49.4386 69.7964 50.1551 69.1802 50.8604 68.4945C53.8913 65.6011 57.4186 58.623 57.5949 53.6145C57.7161 50.505 58.6972 48.5752 60.3725 48.1805C61.2872 47.9646 62.18 48.1617 63.0509 48.7648C64.6601 49.8879 65.9497 52.2809 66.2473 54.72C66.567 57.308 66.0818 59.0505 65.5639 60.8958C64.7813 63.6977 63.9767 66.5855 66.4566 71.8111C65.3433 71.7284 64.4726 71.1178 63.8002 69.9494C63.4805 69.3895 62.764 69.1966 62.202 69.5208C61.64 69.8449 61.4525 70.5612 61.7721 71.1211C62.9185 73.1128 64.6268 74.1642 66.7212 74.1642H68.3635C68.3745 74.1654 68.3855 74.1654 68.4075 74.1642H89.2285C91.5652 74.1642 93.4611 76.0645 93.4611 78.3989C93.4611 80.7349 91.5654 82.6341 89.2287 82.6341ZM41.3042 111.001C41.3042 113.249 39.4744 115.078 37.2261 115.078H30.6127C29.5325 115.078 28.5075 114.653 27.736 113.881C26.9644 113.108 26.5346 112.087 26.5346 111.001V78.1711C26.5346 75.9237 28.3643 74.0951 30.6127 74.0951H37.2261C39.4747 74.0951 41.3042 75.9237 41.3042 78.1711V111.001ZM89.2287 71.8212H69.0802C66.3797 66.7167 67.0522 64.3029 67.8237 61.5253C68.3527 59.6318 68.948 57.4868 68.5732 54.4348C68.1875 51.3265 66.5452 48.3462 64.385 46.8417C62.974 45.8552 61.3979 45.5302 59.8329 45.8993C58.2127 46.2818 55.4682 47.782 55.2586 53.5289C55.1044 57.8496 51.8417 64.323 49.2516 66.8006C48.5682 67.4466 47.885 68.044 47.2125 68.6215C45.5372 70.0809 43.7956 71.5863 42.1093 74.0013C40.9299 72.6246 39.1775 71.7506 37.2265 71.7506H30.6132C27.075 71.7506 24.1983 74.6309 24.1983 78.1711V111.001C24.1983 112.712 24.8597 114.323 26.0722 115.537C27.2956 116.752 28.9048 117.421 30.6132 117.421H37.2265C39.7836 117.421 41.9991 115.92 43.0243 113.753C46.3639 117.414 51.5222 117.418 55.7879 117.418H80.9956C84.6329 117.418 87.5759 114.467 87.5759 110.84C87.5759 109.076 86.8814 107.475 85.7461 106.292C88.4025 105.441 90.3204 102.955 90.3204 100.026C90.3204 98.2945 89.648 96.7172 88.5568 95.5411C91.3013 94.7552 93.3293 92.2167 93.3293 89.2132C93.3293 87.4167 92.6018 85.7864 91.4335 84.5981C93.9795 83.6888 95.8093 81.2529 95.8093 78.3994C95.8088 74.7719 92.855 71.8212 89.2287 71.8212ZM105.398 40.59L114.965 33.667L103.161 33.6902C102.158 33.6804 101.276 33.0532 100.978 32.1009L97.3409 20.8636L93.7147 32.1019C93.406 33.052 92.5353 33.6902 91.5324 33.6902L79.7276 33.667L89.2948 40.59C90.0994 41.1764 90.4411 42.2093 90.1215 43.1604L86.4511 54.3844L95.9963 47.4251C96.3879 47.1378 96.8609 46.9828 97.3465 46.9828C97.8322 46.9828 98.3052 47.1378 98.6968 47.4251L108.242 54.3844L104.572 43.1604C104.252 42.2102 104.594 41.1764 105.398 40.59ZM117.302 32.9074C116.993 31.943 116.145 31.3146 115.12 31.3223L103.194 31.3455L99.5236 19.9917C99.215 19.0273 98.3553 18.4045 97.3414 18.4045C96.3272 18.4045 95.4786 19.0273 95.1591 19.9917L91.4998 31.3455L79.5739 31.3223H79.5629C78.549 31.3223 77.7 31.9439 77.3806 32.9074C77.0719 33.8719 77.4026 34.8792 78.2182 35.4722L87.8846 42.4669L84.1812 53.8064C83.8615 54.7676 84.1922 55.774 85.0079 56.3702C85.4267 56.6691 85.8898 56.8177 86.3637 56.8177C86.8266 56.8177 87.3005 56.6688 87.7083 56.3712L97.3416 49.3402L106.986 56.3712C107.802 56.9674 108.86 56.9662 109.686 56.37C110.502 55.7737 110.833 54.7673 110.513 53.8062L106.809 42.4666L116.476 35.472C117.291 34.8792 117.622 33.8719 117.302 32.9074ZM22.6547 46.9828C22.1808 46.9828 21.7069 47.1305 21.3099 47.4248L11.7647 54.3841L15.435 43.1602C15.7437 42.2091 15.413 41.1762 14.5974 40.5898L5.0302 33.6668L16.835 33.69H16.846C17.8489 33.69 18.7198 33.0518 19.0285 32.1016L22.6547 20.8634L26.281 32.1005C26.43 32.5621 26.7215 32.9647 27.1136 33.2502C27.5058 33.5358 27.9784 33.6897 28.4635 33.6898H28.4745L40.2793 33.6666L30.7121 40.5895C30.3189 40.8746 30.026 41.2768 29.8756 41.7386C29.7251 42.2004 29.7247 42.6979 29.8744 43.1599L33.5447 54.3839L24.0106 47.4246C23.6164 47.1383 23.1419 46.9837 22.6547 46.9828ZM34.9885 56.3705C34.1729 56.9667 33.1147 56.9679 32.299 56.3716L22.6547 49.3406L13.0104 56.3714C12.6026 56.6691 12.1397 56.8179 11.6656 56.8179C11.2027 56.8179 10.7288 56.6691 10.321 56.3705C9.49434 55.7742 9.17465 54.7678 9.48332 53.8066L13.1977 42.4671L3.53137 35.4724C2.70473 34.8795 2.38504 33.8721 2.69371 32.9077C3.00239 31.9444 3.86207 31.3226 4.87598 31.3226L16.8129 31.3458L20.4725 19.992C20.7811 19.0275 21.6408 18.4048 22.655 18.4048C23.6691 18.4048 24.5288 19.0275 24.8372 19.992L28.5078 31.3458L40.4337 31.3226C41.4479 31.3226 42.3075 31.9441 42.6162 32.9077C42.9359 33.8721 42.6052 34.8795 41.7786 35.4724L32.1122 42.4671L35.8266 53.8066C36.1348 54.7678 35.8154 55.774 34.9885 56.3705ZM54.1892 17.8643C55.1923 17.8643 56.063 17.2261 56.3717 16.2762L59.9979 5.03672L63.6242 16.2759C63.7735 16.7373 64.0651 17.1395 64.4572 17.4249C64.8493 17.7102 65.3218 17.8639 65.8067 17.8641H65.8177L77.6225 17.8409L68.0553 24.7638C67.2397 25.3502 66.909 26.3831 67.2176 27.3342L70.8879 38.558L61.3538 31.5987C60.946 31.3034 60.4721 31.1557 59.9982 31.1557C59.5243 31.1557 59.0504 31.3034 58.6536 31.5977L49.1084 38.5582L52.7787 27.3333C53.0874 26.3831 52.7567 25.3505 51.9411 24.7641L42.3739 17.8411L54.1892 17.8643ZM40.8743 19.6467C40.0587 19.0526 39.728 18.0464 40.0367 17.082C40.3564 16.1187 41.205 15.4969 42.2192 15.4969L54.1561 15.5201L57.8154 4.16601C58.1351 3.20156 58.9838 2.57883 59.9977 2.57883C61.0116 2.57883 61.8715 3.20156 62.1802 4.16601L65.8505 15.5201L77.7765 15.4969H77.7875C78.7906 15.4969 79.6503 16.1184 79.9587 17.082C80.2784 18.0464 79.9477 19.0528 79.1321 19.6467L69.455 26.6414L73.1693 37.9809C73.489 38.9421 73.1583 39.9485 72.3317 40.5448C71.5161 41.141 70.4579 41.141 69.6422 40.5459L59.9979 33.5137L50.3647 40.5459C49.9568 40.8436 49.4829 40.9924 49.02 40.9924C48.5461 40.9924 48.0832 40.8436 47.6644 40.5448C46.8488 39.9485 46.5181 38.9421 46.8268 37.9821L50.5411 26.6414L40.8743 19.6467Z" fill="#DF7E25"/>
</g>
</g>
</svg>
