<svg width="68" height="67" viewBox="0 0 68 67" fill="none" xmlns="http://www.w3.org/2000/svg">
<circle cx="34" cy="33.5" r="33" stroke="#131313"/>
<g clip-path="url(#clip0_113_60)">
<path d="M53.8882 38.6475C53.7068 37.1614 53.1175 35.9967 51.7897 35.1855C50.8278 34.5965 50.0489 34.5049 46.365 33.5877V33.3951H50.0421C50.9338 33.3951 51.6605 32.6753 51.6715 31.7862C52.1356 23.9156 52.2056 23.0139 52.174 22.6419C52.174 22.2967 51.8943 22.0171 51.5491 22.0171C51.204 22.0171 50.9243 22.2967 50.9243 22.6419V23.2347C50.4001 32.1236 50.422 31.7295 50.422 31.7655C50.422 31.9714 50.248 32.1454 50.0421 32.1454H46.365V31.9836C46.5666 31.8489 48.06 31.1905 49.1443 29.4338C50.3452 27.4958 50.1779 25.8578 50.1801 24.2716C50.1801 23.636 49.6843 23.1191 49.0513 23.0949H49.0512C44.4173 22.9178 42.0396 20.2911 41.4211 19.4903C41.2312 19.2443 40.944 19.0972 40.6333 19.0865C40.3239 19.0771 40.025 19.2032 39.8183 19.4359C38.8459 20.5305 37.746 20.8768 37.1768 20.9858C36.6612 21.0846 36.2869 21.538 36.2869 22.064C36.2891 25.9914 36.2821 25.7751 36.2926 26.0513C36.3093 28.4905 37.9509 30.9421 40.0776 31.9714V32.1451H36.3475C36.1417 32.1451 35.9678 31.9711 35.9678 31.7653C35.9678 31.7289 35.9887 32.1074 35.4644 23.216C35.4637 23.2046 35.4627 23.1929 35.4614 23.1817C35.454 23.1168 34.7638 16.6797 38.3779 15.8855C38.5598 15.8456 38.7144 15.7264 38.7995 15.5608C38.8146 15.5316 40.3561 12.6534 45.3286 13.6218C47.3078 13.9992 50.2693 16.356 50.8255 19.8247C50.8801 20.1653 51.2002 20.3967 51.5415 20.3427C51.8822 20.2881 52.1141 19.9676 52.0595 19.6268C51.8189 17.9838 51.001 16.2494 49.7643 14.9332L49.7199 14.8857C48.479 13.5715 46.6323 12.6024 45.5671 12.3951C43.8909 12.0688 41.4701 11.9457 39.4547 13.2121C38.5868 13.7573 38.0807 14.3864 37.8465 14.7312C36.0027 15.2548 34.7948 16.8989 34.3456 19.5056C34.0245 21.3683 34.1953 23.097 34.218 23.306C34.8033 32.3445 34.6026 32.0062 34.9414 32.5853C33.1657 32.2997 31.3584 32.8073 29.9888 34.102L29.4426 33.9659C29.4276 33.9587 28.0526 33.3006 27.9229 33.2386V31.9703C31.0178 30.4349 31.5131 27.3632 31.543 27.3067C31.6514 26.8181 31.7108 26.3014 31.7108 25.7826V25.7765C32.8392 25.5306 33.678 24.6353 33.678 23.5712C33.678 23.1304 33.5336 22.7188 33.2848 22.37C33.295 20.7266 33.3415 19.7599 32.9896 18.4639C32.8995 18.2346 32.6046 16.783 31.2967 15.2228C31.2947 15.2203 31.2925 15.2177 31.2905 15.2153C28.8733 12.3403 24.7043 11.2429 20.9648 13.0651C18.1274 14.48 16.2431 17.3981 16.2431 20.6936C16.2432 21.2421 16.2429 22.3036 16.2433 22.3701C15.3144 23.672 16.1075 25.4042 17.8177 25.7766C17.8748 28.6099 19.3987 30.8455 21.6355 31.9851V33.2243L20.0534 33.9817C18.3297 34.4642 16.9924 34.5903 15.9687 35.3494C14.7288 36.2961 14.2943 37.1538 14.1117 38.6538C12.6294 52.0616 12.664 51.2476 12.6741 51.8445C12.656 53.4369 13.7691 54.8261 15.6108 54.8261L21.0732 54.826C21.4184 54.826 21.6981 54.5463 21.6981 54.2012C21.6981 53.856 21.4184 53.5763 21.0732 53.5763H18.7254L19.345 41.8568C19.3632 41.5122 19.0986 41.2181 18.754 41.1998C18.4106 41.1807 18.1152 41.4462 18.0971 41.7909L17.9668 44.2558L14.7794 43.9214L14.7899 43.8286C15.4331 38.7348 15.2019 37.9629 16.0616 36.9407L16.0688 36.9321C17.1156 35.696 18.7754 35.6687 20.0605 35.2676L21.9814 37.7265C22.4407 38.3147 23.313 38.3674 23.8397 37.8367L24.1393 37.5348V40.5586C24.1393 40.9037 24.419 41.1834 24.7642 41.1834C25.1094 41.1834 25.389 40.9037 25.389 40.5586V37.5349L25.6885 37.8367C25.9222 38.0721 26.2396 38.2034 26.5692 38.2034C26.5936 38.2034 26.6182 38.2026 26.6426 38.2013C26.9981 38.1801 27.3277 38.0072 27.5469 37.7266L28.425 36.6027C28.0609 37.7755 28.1887 38.6565 28.1618 39.1547C26.964 40.2769 27.5748 42.1178 29.2665 42.4933C29.5074 43.903 30.363 45.1671 31.7156 45.9077V46.6676C29.5113 47.2613 27.7777 47.2857 26.9932 49.155C26.9596 49.2353 26.9369 49.3022 26.9131 49.3791C26.8811 49.4804 26.8511 49.5995 26.8347 49.6785C26.7385 50.1444 26.7347 50.4391 26.3676 53.5763H23.9892C23.644 53.5763 23.3644 53.856 23.3644 54.2012C23.3644 54.5463 23.644 54.826 23.9892 54.826H26.9253H26.933C26.9335 54.826 26.934 54.8261 26.9344 54.8261C26.935 54.8261 26.9356 54.826 26.9362 54.826H41.0648C41.0648 54.826 41.066 54.8261 41.0666 54.8261C41.0666 54.8261 41.0676 54.826 41.068 54.826H41.0755H43.7126C44.0578 54.826 44.3374 54.5463 44.3374 54.2012C44.3374 53.856 44.0578 53.5763 43.7126 53.5763H41.6332C41.2939 51.0844 41.3262 50.0137 41.0432 49.246C40.6672 48.2202 39.7519 47.5342 38.7604 47.2836L36.2853 46.6674V45.8967C37.5868 45.1831 38.4771 43.9173 38.7145 42.4931C38.7231 42.4883 40.1693 42.2241 40.4132 40.8597C40.4827 40.4795 40.4299 40.0779 40.2384 39.7066C41.4281 39.4646 42.5912 38.5853 43.2199 38.0403C46.4044 40.8027 49.2645 40.4568 49.4979 35.6553C49.9562 35.7976 52.1211 36.1291 52.5539 38.2223C52.5864 38.3793 52.6237 38.602 52.647 38.7924L53.2207 43.9197L50.0584 44.2514L49.9283 41.7906C49.9102 41.4459 49.612 41.1797 49.2714 41.1996C48.9268 41.2178 48.6621 41.5119 48.6804 41.8565L49.2999 53.5761H46.6284C46.2832 53.5761 46.0035 53.8558 46.0035 54.2009C46.0035 54.5461 46.2832 54.8258 46.6284 54.8258L52.3894 54.8259C53.2311 54.8259 53.9537 54.5443 54.4792 54.0117C55.0194 53.4642 55.3359 52.6536 55.3262 51.8424C55.3344 51.316 55.3773 52.0574 53.8882 38.6475ZM17.8624 45.5014L17.4567 53.5763H15.6107C14.524 53.5763 13.9476 52.8651 13.9236 51.8326C13.9161 51.3902 13.9399 51.5399 14.6405 45.1633L17.8624 45.5014ZM31.7108 24.4722V22.6706C32.665 23.0642 32.6652 24.0785 31.7108 24.4722ZM17.8175 24.4724C16.8627 24.0786 16.8626 23.0641 17.8175 22.6704V24.4724ZM18.3577 21.3007C18.0532 21.3094 17.7621 21.3642 17.4928 21.4574C17.5007 20.8035 17.4525 20.2111 17.622 19.3239C17.6944 19.1302 17.9697 17.0043 19.9357 15.2572C20.1989 15.0534 20.6311 14.5988 21.7458 14.0765C24.1477 12.9796 27.086 13.1523 29.5924 15.2573C31.2874 16.7631 31.6581 18.471 31.7826 18.7875C32.1313 20.0736 32.0091 20.9822 32.0353 21.4575C31.7661 21.3642 31.4751 21.3095 31.1708 21.3008C31.0123 21.2113 30.8657 21.0872 30.7503 20.9601C29.8984 19.9786 30.621 19.2184 29.7072 18.4558C29.0628 17.9181 28.4458 18.1235 27.3055 18.2726C21.9947 18.8452 20.929 17.5313 19.8212 18.4558C19.4945 18.7284 19.2888 19.1228 19.2748 19.6119C19.2247 20.9387 18.4118 21.2397 18.3577 21.3007ZM19.0672 25.7827C19.0672 25.0873 19.0672 23.5269 19.0672 22.3323C19.5402 21.9915 19.888 21.7152 20.1992 21.055C20.3777 20.6776 20.5081 20.2018 20.5257 19.6118C20.5298 19.45 20.6819 19.3264 20.8476 19.3529C27.4459 20.2313 28.9824 18.8147 29.0026 19.6115C29.0422 21.0085 29.8101 21.7768 29.8225 21.7974C30.0518 22.0507 30.199 22.1434 30.4608 22.3322C30.4609 22.9821 30.4606 25.1549 30.4611 25.2239C30.4197 25.4043 30.9049 28.951 27.3768 30.8463H27.3769C27.3681 30.85 26.4578 31.373 25.1413 31.4656C24.8106 31.4873 24.485 31.473 24.4934 31.4732C21.4018 31.329 19.0672 28.7649 19.0672 25.7827ZM22.96 36.9493L21.2775 34.7955L22.1239 34.3904L23.8689 36.0334L22.96 36.9493ZM24.7642 35.1599L22.8851 33.3907V32.4709C24.1311 32.8214 25.4411 32.8067 26.6582 32.4666V33.3765L24.7642 35.1599ZM26.5683 36.9493L25.6596 36.0334L27.4145 34.3809L28.259 34.7851L26.5683 36.9493ZM29.1993 41.1436C28.6291 40.8178 28.6778 40.2282 29.1993 39.9317V41.1436ZM39.0784 29.68C37.1013 27.4832 37.5383 25.5015 37.5364 22.1881C38.2528 22.0321 39.4766 21.6058 40.586 20.4469C41.474 21.5183 44.1222 24.1321 48.9303 24.341C48.9276 26.0018 48.9349 25.7054 48.9247 26.0408L48.9244 26.0388C48.8683 26.2633 48.9832 28.327 46.8823 30.1572C46.8737 30.1642 46.8016 30.223 46.8103 30.216C44.8548 31.7957 42.1359 31.8643 40.1458 30.5702C40.02 30.4888 39.2197 29.8153 39.0784 29.68ZM36.8346 48.0922L36.8613 48.0989C38.1235 48.4435 38.5481 48.4442 39.0919 48.7698C40.2304 49.452 39.9092 50.2935 40.3687 53.5764H38.7055L38.6315 52.2277C38.6126 51.8831 38.318 51.6186 37.9734 51.6381C37.6288 51.657 37.3648 51.9517 37.3838 52.2962L37.454 53.5763H30.5639L30.6342 52.2962C30.6532 51.9516 30.3892 51.657 30.0446 51.6381C29.6981 51.6195 29.4053 51.8832 29.3865 52.2277L29.3125 53.5764H27.6324C28.0464 50.0248 27.8712 49.3917 28.9091 48.7698C29.4277 48.4588 29.7648 48.4636 31.1662 48.0922C31.8801 48.8999 32.9107 49.3712 34.0005 49.3712C35.0902 49.3712 36.1208 48.9 36.8346 48.0922ZM32.9651 46.3714C33.212 46.4253 33.4815 46.4629 33.762 46.476C33.7772 46.4767 33.7921 46.4772 33.8072 46.4776L33.8517 46.4791C34.3033 46.4911 34.7419 46.4404 35.0356 46.3669C35.0665 46.607 34.8986 47.3054 35.421 47.684C34.5621 48.2667 33.4402 48.2678 32.5796 47.684C33.1006 47.3064 32.9354 46.6009 32.9651 46.3714ZM37.5253 41.8937C37.5228 41.9394 37.5197 41.9826 37.516 42.0241C37.397 43.3012 36.5981 44.3804 35.4937 44.8977C35.4655 44.9012 33.5815 45.9094 31.7677 44.4467C31.7476 44.4188 30.6739 43.6672 30.4786 42.1507C30.4255 41.7435 30.4595 41.4184 30.449 39.6819C33.1926 40.2495 35.1048 39.1476 35.9416 38.0549C36.4963 38.8718 37.1279 39.2228 37.5318 39.3717C37.5306 42.0467 37.5356 41.7079 37.5253 41.8937ZM38.5693 38.554C38.3594 38.2957 38.1119 38.2476 38.0128 38.2161C37.7375 38.1281 37.2087 37.8518 36.7598 36.9904C36.4089 36.3173 35.4442 36.3425 35.1221 37.02C34.7566 37.7886 33.0888 39.1254 30.2662 38.3534C29.9929 38.279 29.6978 38.3414 29.4735 38.5461C29.4526 38.549 29.432 38.5526 29.4113 38.556C29.413 38.1457 29.4162 38.1299 29.4159 38.1383C29.5762 34.3249 34.1325 32.3503 37.0237 34.9066C37.0233 34.9099 37.031 34.9094 37.0306 34.9127C37.7693 35.5694 38.2742 36.4186 38.4879 37.4744C38.5929 38.024 38.5648 38.468 38.5693 38.554ZM37.9961 34.106C37.6816 33.808 37.4308 33.6147 37.0807 33.3953H40.0776V33.5878L37.9961 34.106ZM38.7815 41.1445V39.9318C39.0042 40.0591 39.1929 40.2797 39.1929 40.5382C39.1929 40.8626 38.9468 41.0205 38.7815 41.1445ZM39.819 38.5142C39.8064 38.4195 39.8872 37.5487 39.496 36.4204C40.1535 36.9836 40.9182 37.3899 41.7427 37.6109C41.1466 38.039 40.4271 38.4477 39.819 38.5142ZM39.8091 34.9424L40.6199 34.7406C40.6567 34.7315 40.6925 34.719 40.727 34.7034C41.0916 34.5381 41.3271 34.1177 41.3271 33.6324L41.3272 32.4633C42.4577 32.7842 43.652 32.8464 45.1153 32.4702V33.6324C45.1153 34.1178 45.3509 34.5383 45.7155 34.7034C45.75 34.7191 45.7858 34.7315 45.8225 34.7406L46.6312 34.942C44.7978 37.0872 41.6464 37.0917 39.8091 34.9424ZM47.1987 38.4483C46.4745 38.7504 45.3331 38.0718 44.6893 37.6063C46.016 37.2385 47.1442 36.4336 47.9549 35.2715L48.2597 35.3474C48.2076 37.0885 47.836 38.1826 47.1987 38.4483ZM53.5897 53.1343C52.9272 53.8057 52.0279 53.4965 50.5514 53.5763L50.1245 45.5012L53.3597 45.1618L54.0637 51.4533C54.1163 52.0746 54.0311 52.6869 53.5897 53.1343Z" fill="#131313"/>
</g>
<defs>
<clipPath id="clip0_113_60">
<rect width="42.6562" height="42.6562" fill="white" transform="translate(12.6719 12.1719)"/>
</clipPath>
</defs>
</svg>
