<svg width="68" height="67" viewBox="0 0 68 67" fill="none" xmlns="http://www.w3.org/2000/svg">
<circle cx="34" cy="33.5" r="33" stroke="#131313"/>
<path d="M21.6352 38.5918H21.4284C21.015 38.5918 20.6858 38.2257 20.6858 37.766C20.6858 37.3063 21.015 36.9402 21.4284 36.9402H21.6352C22.0486 36.9402 22.3778 37.3063 22.3778 37.766C22.3778 38.2257 22.0486 38.5918 21.6352 38.5918Z" fill="#131313"/>
<path d="M15.449 25.5659C15.2576 25.5659 15.0738 25.4893 14.9284 25.3276C13.3895 23.6419 14.0173 19.317 14.1628 18.4656C14.5073 16.8565 15.1887 15.8094 16.184 15.3241C17.3554 14.7451 18.6034 15.1453 19.2312 15.4262C24.1542 12.14 27.0099 15.3496 28.0206 16.9161C28.8551 18.2017 29.3221 19.6916 29.3681 21.224C29.414 22.7054 29.1001 24.0676 28.4493 25.1743C28.2273 25.5574 27.7679 25.6681 27.4234 25.4127C27.0788 25.1658 26.987 24.655 27.209 24.2719C27.6913 23.4461 27.921 22.4415 27.8828 21.2836C27.8445 20.0747 27.477 18.8998 26.8109 17.8782C25.0653 15.1879 22.6688 14.9069 19.6829 17.0523C19.4532 17.2141 19.1623 17.2311 18.9249 17.0864C18.9173 17.0779 17.7076 16.3712 16.7735 16.8395C16.2223 17.1119 15.8318 17.776 15.6098 18.8147C15.3265 20.5259 15.2423 23.3609 15.9696 24.1527C16.2606 24.4762 16.2682 24.9955 15.9773 25.3191C15.8318 25.4893 15.6404 25.5659 15.449 25.5659Z" fill="#131313"/>
<path d="M21.6736 33.7217C20.9463 33.7217 20.2189 33.5599 19.4992 33.2364C17.8838 32.4957 16.6358 30.9548 16.0999 29.0562C15.2041 28.6476 14.5686 27.379 14.5686 25.8381C14.5686 25.3783 14.6299 24.9271 14.737 24.5014C14.9438 23.7097 15.3419 23.0967 15.8319 22.7647C15.8931 22.4667 16.0463 22.1857 16.2606 21.9814C16.5592 21.7005 16.9574 21.5813 17.3478 21.6494C20.1194 22.1262 22.1406 19.7083 22.1636 19.6827C22.3244 19.4869 22.5541 19.3848 22.7914 19.4188C23.0288 19.4444 23.2355 19.5976 23.358 19.819C23.3886 19.87 24.1313 21.1982 25.9381 21.0705C26.3363 21.0449 26.742 21.1982 27.033 21.4961C27.3239 21.8026 27.4924 22.2283 27.4924 22.6795V22.7817C27.967 23.1137 28.3422 23.7097 28.5489 24.4844C28.6638 24.8931 28.725 25.3528 28.725 25.8381C28.725 27.3961 28.0742 28.6816 27.1708 29.0733C26.6502 30.8696 25.54 32.3169 24.07 33.1002C23.3809 33.4663 22.6459 33.6791 21.888 33.7217C21.8191 33.7217 21.7502 33.7217 21.6736 33.7217ZM17.2866 23.3095V23.3351C17.2866 23.7352 17.0339 24.0758 16.6817 24.1439C16.5592 24.1694 16.3142 24.4163 16.1688 24.9697C16.0922 25.2421 16.0616 25.5316 16.0616 25.8381C16.0616 26.8853 16.4903 27.5323 16.72 27.5408C17.0569 27.5493 17.3478 27.8132 17.4244 28.1793C17.7689 29.7884 18.7566 31.108 20.0658 31.7125C20.6477 31.9764 21.2449 32.0956 21.8267 32.07C22.378 32.036 22.9216 31.8827 23.4345 31.6018C24.6366 30.9633 25.5247 29.7118 25.8616 28.1708C25.9458 27.8047 26.2444 27.5408 26.5813 27.5408C26.8109 27.5408 27.2397 26.8767 27.2397 25.8381C27.2397 25.5316 27.2014 25.2336 27.1249 24.9697C26.9717 24.4078 26.742 24.1694 26.6272 24.1439C26.2674 24.0758 26.007 23.7352 26.007 23.3266V22.671C24.338 22.8158 23.2508 22.0495 22.6536 21.4195C21.7195 22.2879 19.7902 23.6756 17.2866 23.3095Z" fill="#131313"/>
<path d="M33.0583 50.0001H10.2427C9.82922 50.0001 9.5 49.6255 9.5 49.1742V41.4694C9.5 37.8767 12.1261 34.948 15.3647 34.948H18.7794C19.0627 34.948 19.3153 35.1268 19.4455 35.3992C19.8742 36.3357 20.5939 36.8976 21.4208 36.9487C22.3625 36.9998 23.2966 36.3953 23.9091 35.3311C24.0469 35.0927 24.2842 34.948 24.5369 34.948H27.9516C31.1825 34.948 33.8162 37.8682 33.8162 41.4694V49.1742C33.8009 49.6255 33.4717 50.0001 33.0583 50.0001ZM10.9853 48.3484H32.3156V41.4694C32.3156 38.7876 30.3556 36.5996 27.9363 36.5996H24.912C24.0086 37.9363 22.707 38.677 21.3366 38.6003C20.1039 38.5322 19.032 37.8086 18.343 36.5996H15.357C12.9453 36.5996 10.9777 38.7791 10.9777 41.4694V48.3484H10.9853Z" fill="#131313"/>
<path d="M36.7104 41.418C36.297 41.418 35.9678 41.0519 35.9678 40.5922V29.3117C35.9678 26.4851 36.9554 23.8289 38.7546 21.8282C40.5539 19.8275 42.9426 18.7292 45.4845 18.7292C50.729 18.7292 55.0012 23.4713 55.0012 29.3117V40.5837C55.0012 41.0434 54.672 41.4095 54.2586 41.4095C53.8451 41.4095 53.5159 41.0434 53.5159 40.5837V29.3117C53.5159 24.3908 49.9175 20.3809 45.4845 20.3809C43.3407 20.3809 41.3271 21.3089 39.8036 22.9946C38.2876 24.6803 37.4531 26.9193 37.4531 29.3031V40.5837C37.4531 41.0519 37.1162 41.418 36.7104 41.418Z" fill="#131313"/>
<path d="M57.7573 50H33.2114C32.798 50 32.4688 49.6339 32.4688 49.1742C32.4688 45.9135 33.6095 42.8486 35.6844 40.5329C37.208 38.8472 39.1067 37.6978 41.1816 37.2126C41.4266 37.153 41.6792 37.2381 41.863 37.4339L45.4844 41.4694L49.1058 37.4339C49.2819 37.2381 49.5345 37.153 49.7872 37.2126C54.8327 38.3874 58.5 43.419 58.5 49.1742C58.5 49.6254 58.1708 50 57.7573 50ZM33.977 48.3484H56.9841C56.6702 43.8702 53.7914 40.0391 49.8638 38.9323L46.005 43.2232C45.8672 43.3764 45.6758 43.4615 45.4767 43.4615C45.2777 43.4615 45.0939 43.3764 44.9484 43.2232L41.0897 38.9323C39.4436 39.4006 37.943 40.3541 36.718 41.7077C35.1178 43.5041 34.1531 45.8368 33.977 48.3484Z" fill="#131313"/>
<path d="M45.4383 37.7486C45.3005 37.7486 45.1551 37.7316 45.0096 37.706C43.9071 37.5017 38.341 35.9863 38.9076 26.2723C38.9305 25.8636 39.2215 25.5401 39.589 25.506C39.6808 25.4975 41.8169 25.2591 41.9011 23.284C41.9165 22.9349 42.1232 22.6369 42.4218 22.5348C42.7204 22.4326 43.0419 22.5518 43.2333 22.8242C43.2716 22.8838 47.0997 28.4517 51.0121 26.1871C51.2418 26.0509 51.5251 26.0679 51.7471 26.2212C51.9691 26.3744 52.0993 26.6469 52.0993 26.9363C52.0916 27.345 51.839 36.9143 45.714 37.7231C45.6221 37.7401 45.5302 37.7486 45.4383 37.7486ZM40.3546 27.03C40.1326 34.539 44.0372 35.8501 45.2622 36.0799C45.3618 36.097 45.4383 36.1055 45.5149 36.097C49.2205 35.6117 50.2312 30.5887 50.5068 28.1793C47.2452 29.1839 44.3818 26.6213 42.9654 25.0037C42.3911 26.1871 41.2657 26.7831 40.3546 27.03Z" fill="#131313"/>
</svg>
