<svg width="68" height="67" viewBox="0 0 68 67" fill="none" xmlns="http://www.w3.org/2000/svg">
<circle cx="34" cy="33.5" r="33" stroke="#131313"/>
<g clip-path="url(#clip0_110_17)">
<path d="M29.6301 26.3821C29.9698 26.3821 30.2454 26.1066 30.2454 25.7669V25.1094C30.2454 24.7694 29.9698 24.4941 29.6301 24.4941C29.2901 24.4941 29.0149 24.7694 29.0149 25.1094V25.7669C29.0149 26.1066 29.2901 26.3821 29.6301 26.3821Z" fill="#131313"/>
<path d="M37.5208 26.3821C37.8607 26.3821 38.136 26.1066 38.136 25.7669V25.1094C38.136 24.7694 37.8607 24.4941 37.5208 24.4941C37.1811 24.4941 36.9055 24.7694 36.9055 25.1094V25.7669C36.9055 26.1066 37.1811 26.3821 37.5208 26.3821Z" fill="#131313"/>
<path d="M29.6724 29.0544C29.6724 31.2068 31.4232 32.9577 33.5756 32.9577C35.7276 32.9577 37.4785 31.2068 37.4785 29.0544C37.4785 28.7148 37.2032 28.4392 36.8632 28.4392H30.2876C29.9476 28.4392 29.6724 28.7148 29.6724 29.0544ZM36.1765 29.6697C35.8981 30.8479 34.8374 31.7272 33.5756 31.7272C32.3134 31.7272 31.2527 30.8479 30.9743 29.6697H36.1765Z" fill="#131313"/>
<path d="M48.364 41.9741L42.51 39.7227L41.0254 37.7431C40.6521 37.2454 39.9923 37.0977 39.4514 37.3627V34.7653C41.4596 33.083 42.7391 30.558 42.7391 27.7394V27.6968C42.7532 27.6971 42.7673 27.6971 42.7814 27.6971C44.2086 27.6971 45.3695 26.5362 45.3695 25.1093C45.3695 24.1448 44.8389 23.3024 44.0542 22.8573V18.5333C44.0542 14.931 41.1235 12 37.5208 12H29.6301C28.6656 12 27.8232 12.5306 27.3781 13.3151H26.9997C24.8476 13.3151 23.0968 15.0662 23.0968 17.2183V22.8573C22.312 23.3024 21.7814 24.1448 21.7814 25.1093C21.7814 26.5362 22.9423 27.6971 24.3695 27.6971C24.3836 27.6971 24.3977 27.6971 24.4118 27.6968V27.7394C24.4118 30.558 25.6913 33.083 27.6995 34.7653V37.3627C27.1586 37.098 26.4988 37.2454 26.1255 37.7431L24.6409 39.7227L18.7869 41.9741C17.0383 42.6467 15.8633 44.3575 15.8633 46.2307V53.3848C15.8633 53.7244 16.1389 54 16.4785 54C16.8182 54 17.0938 53.7244 17.0938 53.3848V46.2307C17.0938 45.8296 17.1681 45.4389 17.3046 45.0743L20.9755 47.8275C21.4802 48.2059 21.7814 48.8086 21.7814 49.4393V53.3848C21.7814 53.7244 22.057 54 22.3966 54C22.7363 54 23.0119 53.7244 23.0119 53.3848V49.4393C23.0119 48.4232 22.5267 47.4526 21.7138 46.8428L17.9435 44.0153C18.2893 43.6266 18.7264 43.3158 19.2285 43.1225L24.8745 40.9509L28.9226 44.999C29.2872 45.3636 29.7721 45.5642 30.2876 45.5642C30.8032 45.5642 31.288 45.3636 31.6527 44.999L32.9604 43.6913V53.3848C32.9604 53.7244 33.2356 54 33.5756 54C33.9153 54 34.1909 53.7244 34.1909 53.3848V43.6913L35.4982 44.999C35.8629 45.3636 36.3477 45.5642 36.8633 45.5642C37.3789 45.5642 37.8637 45.3636 38.2283 44.999L39.9286 43.2988C40.1689 43.0584 40.1689 42.6688 39.9286 42.4285C39.6886 42.1885 39.2989 42.1885 39.0586 42.4285L37.3584 44.129C37.226 44.261 37.0504 44.3338 36.8633 44.3338C36.6765 44.3338 36.5006 44.261 36.3685 44.129L34.5292 42.2894L39.9827 38.4721C40.0016 38.4589 40.0269 38.4628 40.0407 38.4814L41.3116 40.1755L41.0312 40.4559C40.7912 40.6962 40.7912 41.0858 41.0312 41.3259C41.2715 41.5662 41.6611 41.5662 41.9015 41.3259L42.2761 40.9509L47.9224 43.1225C48.4246 43.3158 48.8613 43.6266 49.2074 44.0153L45.4372 46.8431C44.6242 47.4526 44.1388 48.4232 44.1388 49.4393V53.3848C44.1388 53.7244 44.4143 54 44.754 54C45.094 54 45.3692 53.7244 45.3692 53.3848V49.4393C45.3692 48.8083 45.6707 48.2056 46.1754 47.8271L49.8463 45.074C49.9828 45.4386 50.0572 45.8296 50.0572 46.2307V53.3848C50.0572 53.7244 50.3324 54 50.6724 54C51.0121 54 51.2876 53.7244 51.2876 53.3848V46.2307C51.2876 44.3575 50.1126 42.6467 48.364 41.9741ZM30.7824 44.129C30.6504 44.261 30.4745 44.3338 30.2876 44.3338C30.1005 44.3338 29.9249 44.261 29.7926 44.129L25.8394 40.1755L27.1102 38.4814C27.1237 38.4631 27.1493 38.4589 27.1682 38.4721L32.622 42.2894L30.7824 44.129ZM38.2206 38.2032L33.5756 41.455L28.93 38.2032V35.6353C30.2931 36.4402 31.8812 36.9029 33.5756 36.9029C35.2698 36.9029 36.8578 36.4402 38.2206 35.6353V38.2032ZM33.4971 35.6721C29.1299 35.6298 25.6423 32.006 25.6423 27.6382V26.9778C25.6423 26.84 25.6035 26.7022 25.5202 26.5923C25.352 26.3705 25.0687 26.2933 24.821 26.3814C24.6595 26.4388 24.5118 26.4667 24.3695 26.4667C23.621 26.4667 23.0119 25.8578 23.0119 25.1093C23.0119 24.3608 23.621 23.7516 24.3695 23.7516C24.5118 23.7516 24.6595 23.7795 24.821 23.8372C24.9771 23.8926 25.1533 23.8814 25.3017 23.808C27.1342 22.8945 27.8693 21.0984 27.8998 21.0225C28.026 20.7068 27.8725 20.3489 27.5569 20.2227C27.2413 20.0964 26.8833 20.2499 26.7574 20.5655C26.752 20.579 26.2265 21.8611 24.9585 22.5952C24.7598 22.5461 24.5653 22.5215 24.3695 22.5215C24.3554 22.5215 24.3413 22.5221 24.3272 22.5224V17.2183C24.3272 15.742 25.5237 14.5455 27 14.5455H27.0432C27.0429 14.5596 27.0423 14.5737 27.0423 14.5878C27.0423 14.947 27.3499 15.2341 27.7158 15.2005C28.0334 15.171 28.2692 14.8919 28.2728 14.5731C28.2808 13.8313 28.8864 13.2305 29.6301 13.2305H37.5208C40.4496 13.2305 42.8237 15.6046 42.8237 18.5333V22.5221C42.8096 22.5221 42.7955 22.5211 42.7814 22.5211C42.5715 22.5211 42.3626 22.549 42.1492 22.6057C40.8799 22.0453 40.3028 20.4281 40.1423 19.8888C40.2349 19.8423 40.3275 19.7943 40.4198 19.7449C40.7178 19.5856 40.853 19.2149 40.7002 18.9134C40.5432 18.6035 40.1631 18.4856 39.8593 18.6493C37.3648 19.9926 34.6558 20.2236 31.8075 19.336C29.6602 18.667 28.2301 17.5781 28.1991 17.5544C27.9308 17.3458 27.5444 17.3945 27.3361 17.6624C27.1275 17.9306 27.1759 18.317 27.4441 18.5257C27.5079 18.5756 29.0379 19.7529 31.397 20.497C32.6451 20.8905 33.89 21.0862 35.1111 21.0862C36.4477 21.0862 37.7551 20.8504 39.0063 20.3832C39.2665 21.1958 40.0157 23.0178 41.6647 23.7372C41.814 23.8026 41.9761 23.8336 42.1389 23.8349H42.1392C42.2556 23.8362 42.3712 23.8183 42.4843 23.7901C42.5875 23.7641 42.6856 23.7516 42.7814 23.7516C43.5299 23.7516 44.1391 24.3604 44.1391 25.109C44.1391 25.8575 43.5299 26.4663 42.7814 26.4663C42.6404 26.4663 42.4943 26.4391 42.3344 26.3827C42.2107 26.3391 42.0745 26.3324 41.9489 26.3705C41.6794 26.4526 41.5086 26.6958 41.5086 26.9608V27.7391C41.5086 32.14 37.9073 35.715 33.4971 35.6721Z" fill="#131313"/>
<path d="M30.2877 48.8239H28.6012V47.4666C28.6012 47.1269 28.326 46.8513 27.986 46.8513C27.6463 46.8513 27.3708 47.1269 27.3708 47.4666V48.8239H25.6846C24.9829 48.8239 24.4119 49.3949 24.4119 50.0967V52.7271C24.4119 53.4289 24.9829 53.9999 25.6846 53.9999H30.2877C30.9894 53.9999 31.5604 53.4289 31.5604 52.7271V50.0967C31.5604 49.3949 30.9894 48.8239 30.2877 48.8239ZM30.33 52.7271C30.33 52.7505 30.3111 52.7694 30.2877 52.7694H25.6846C25.6612 52.7694 25.6423 52.7505 25.6423 52.7271V50.097C25.6423 50.0736 25.6612 50.0544 25.6846 50.0544H30.2877C30.3111 50.0544 30.33 50.0736 30.33 50.097V52.7271Z" fill="#131313"/>
</g>
<defs>
<clipPath id="clip0_110_17">
<rect width="42" height="42" fill="white" transform="translate(12.5 12)"/>
</clipPath>
</defs>
</svg>
