<svg width="68" height="67" viewBox="0 0 68 67" fill="none" xmlns="http://www.w3.org/2000/svg">
<path fill-rule="evenodd" clip-rule="evenodd" d="M24.7926 41.4352H14.2171C13.8207 41.4352 13.5 41.1167 13.5 40.7204V32.443C13.5 32.0488 13.8207 31.7282 14.2171 31.7282H50.5444C52.2925 31.7282 53.7133 33.1489 53.7133 34.897V38.2685C53.7133 40.0144 52.2925 41.4352 50.5444 41.4352H45.9592C45.6074 44.0629 43.3538 46.0939 40.6325 46.0939C37.9135 46.0939 35.6576 44.0629 35.308 41.4352H24.7926ZM25.5074 33.1578V40.0055H29.8499V39.1549C29.8499 38.7607 30.1705 38.44 30.5669 38.44C30.9611 38.44 31.2818 38.7607 31.2818 39.1549V40.0055H35.308C35.6576 37.38 37.9135 35.3469 40.6325 35.3469C43.3538 35.3469 45.6074 37.38 45.9592 40.0055H47.3778V33.1578H31.2818V34.0397C31.2818 34.4338 30.9611 34.7545 30.5669 34.7545C30.1705 34.7545 29.8499 34.4338 29.8499 34.0397V33.1578H25.5074ZM44.5763 40.7226V40.7181C44.5741 38.5469 42.8059 36.7788 40.6325 36.7788C38.459 36.7788 36.6909 38.5469 36.6909 40.7204C36.6909 42.8938 38.459 44.6642 40.6325 44.6642C42.8059 44.6642 44.5741 42.896 44.5763 40.7226ZM24.0778 40.0055V33.1578H14.9319V40.0055H24.0778ZM48.8074 33.1578V40.0055H50.5444C51.502 40.0055 52.2814 39.2261 52.2814 38.2685V34.897C52.2814 33.9372 51.502 33.1578 50.5444 33.1578H48.8074ZM48.2195 29.695C48.1305 29.695 48.0369 29.6772 47.9478 29.6416C45.3914 28.5905 45.2422 26.446 45.1219 24.7223C44.9972 22.9186 44.848 21.8764 43.2446 21.3998C42.8661 21.2885 42.6501 20.8898 42.7636 20.5113C42.875 20.1327 43.2736 19.9167 43.6522 20.0303C46.2844 20.8097 46.4313 22.923 46.5494 24.6221C46.6785 26.4705 46.8411 27.6396 48.4934 28.3188C49.215 28.615 48.9967 29.695 48.2195 29.695ZM51.9963 29.695C51.9073 29.695 51.8137 29.6772 51.7247 29.6416C49.1682 28.5905 49.019 26.446 48.8987 24.7223C48.774 22.9186 48.6248 21.8764 47.0215 21.3998C46.6429 21.2885 46.4269 20.8898 46.5405 20.5113C46.6518 20.1327 47.0504 19.9167 47.429 20.0303C50.0612 20.8097 50.2081 22.923 50.3262 24.6221C50.4553 26.4705 50.6179 27.6396 52.2703 28.3188C52.9918 28.615 52.7735 29.695 51.9963 29.695ZM30.5669 38.1104C30.1705 38.1104 29.8499 37.7898 29.8499 37.3956V35.7989C29.8499 35.4048 30.1705 35.0841 30.5669 35.0841C30.9611 35.0841 31.2818 35.4048 31.2818 35.7989V37.3956C31.2818 37.7898 30.9611 38.1104 30.5669 38.1104ZM42.1846 43.0697C42.002 43.0697 41.8194 42.9985 41.6791 42.8604L40.5367 41.7158L39.3921 42.8604C39.2518 42.9985 39.0692 43.0697 38.8866 43.0697C38.2542 43.0697 37.929 42.2992 38.3811 41.8494L39.5235 40.7048L38.3811 39.5601C38.1005 39.2818 38.1005 38.8275 38.3811 38.5491C38.6595 38.2708 39.1138 38.2708 39.3921 38.5491L40.5367 39.6938L41.6791 38.5491C41.9597 38.2708 42.4118 38.2708 42.6924 38.5491C42.9707 38.8275 42.9707 39.2818 42.6924 39.5601L41.5478 40.7048L42.6924 41.8494C43.1422 42.2992 42.8171 43.0697 42.1846 43.0697Z" fill="#131313"/>
<circle cx="34" cy="33.5" r="33" stroke="#131313"/>
</svg>
