<svg width="68" height="67" viewBox="0 0 68 67" fill="none" xmlns="http://www.w3.org/2000/svg">
<circle cx="34" cy="33.5" r="33" stroke="#131313"/>
<g clip-path="url(#clip0_151_473)">
<path d="M19.1111 50C18.7924 50 18.4808 49.9056 18.2158 49.7285C17.9507 49.5515 17.7442 49.2998 17.6222 49.0053C17.5002 48.7108 17.4683 48.3868 17.5305 48.0742C17.5927 47.7616 17.7462 47.4745 17.9716 47.2491L47.749 17.4718C48.0512 17.1695 48.4611 16.9998 48.8885 16.9998C49.3159 16.9998 49.7258 17.1695 50.028 17.4718C50.3302 17.774 50.5 18.1839 50.5 18.6113C50.5 19.0387 50.3302 19.4486 50.028 19.7508L20.2507 49.5282C20.1012 49.678 19.9235 49.7968 19.728 49.8778C19.5324 49.9587 19.3228 50.0003 19.1111 50Z" fill="#131313"/>
<path d="M48.8886 50C48.677 50.0003 48.4674 49.9587 48.2718 49.8778C48.0763 49.7968 47.8986 49.678 47.7491 49.5282L17.9718 19.7508C17.6695 19.4486 17.4998 19.0387 17.4998 18.6113C17.4998 18.1839 17.6695 17.774 17.9718 17.4718C18.274 17.1695 18.6839 16.9998 19.1113 16.9998C19.5387 16.9998 19.9486 17.1695 20.2508 17.4718L50.0282 47.2491C50.2536 47.4745 50.4071 47.7616 50.4693 48.0742C50.5315 48.3868 50.4996 48.7108 50.3776 49.0053C50.2556 49.2998 50.049 49.5515 49.784 49.7285C49.519 49.9056 49.2074 50 48.8886 50Z" fill="#131313"/>
</g>
<defs>
<clipPath id="clip0_151_473">
<rect width="33" height="33" fill="white" transform="translate(17.5 17)"/>
</clipPath>
</defs>
</svg>
