<svg width="24" height="24" viewBox="0 0 24 24" fill="none" xmlns="http://www.w3.org/2000/svg">
<g clip-path="url(#clip0_319_10)">
<path d="M12.7699 21.5384C13.5845 22.063 14.5542 22.2929 15.5176 22.19C16.481 22.0871 17.3802 21.6575 18.0656 20.9727L18.6628 20.3756C18.9276 20.1079 19.0762 19.7465 19.0762 19.3699C19.0762 18.9933 18.9276 18.6319 18.6628 18.3641L16.1485 15.8656C15.8834 15.6017 15.5246 15.4535 15.1506 15.4535C14.7766 15.4535 14.4178 15.6017 14.1528 15.8656C13.885 16.1304 13.5236 16.279 13.147 16.279C12.7704 16.279 12.409 16.1304 12.1413 15.8656L8.13418 11.8584C7.86932 11.5907 7.72076 11.2293 7.72076 10.8527C7.72076 10.4761 7.86932 10.1147 8.13418 9.847C8.39807 9.58195 8.54623 9.22316 8.54623 8.84914C8.54623 8.47513 8.39807 8.11634 8.13418 7.85129L5.71418 5.337C5.44646 5.07214 5.08506 4.92358 4.70847 4.92358C4.33187 4.92358 3.97048 5.07214 3.70275 5.337L3.10561 5.93414C2.40853 6.60992 1.9643 7.50431 1.84705 8.46808C1.72979 9.43184 1.94662 10.4067 2.46132 11.2299C5.20147 15.2979 8.70181 18.7983 12.7699 21.5384Z" stroke="#FFA500" stroke-width="2" stroke-linecap="round" stroke-linejoin="round"/>
<path d="M12.0001 1.78564C14.7091 1.78564 17.3071 2.86179 19.2227 4.77734C21.1382 6.69289 22.2144 9.29093 22.2144 11.9999" stroke="#FFA500" stroke-width="2" stroke-linecap="round" stroke-linejoin="round"/>
<path d="M11.9999 5.71411C13.667 5.71411 15.2658 6.37635 16.4446 7.55515C17.6234 8.73395 18.2856 10.3328 18.2856 11.9998" stroke="#FFA500" stroke-width="2" stroke-linecap="round" stroke-linejoin="round"/>
</g>
<defs>
<clipPath id="clip0_319_10">
<rect width="24" height="24" fill="white" transform="matrix(-1 0 0 1 24 0)"/>
</clipPath>
</defs>
</svg>
