<svg width="68" height="67" viewBox="0 0 68 67" fill="none" xmlns="http://www.w3.org/2000/svg">
<path fill-rule="evenodd" clip-rule="evenodd" d="M24.7926 44.4364H14.2171C13.8207 44.4364 13.5 44.1157 13.5 43.7216V35.4442C13.5 35.0501 13.8207 34.7294 14.2171 34.7294H24.7859H24.7926H48.0926H50.5444C52.2925 34.7294 53.7133 36.1501 53.7133 37.896V41.2698C53.7133 43.0157 52.2925 44.4364 50.5444 44.4364H24.7926ZM48.8074 36.159V43.0068H50.5444C51.502 43.0068 52.2814 42.2273 52.2814 41.2698V37.896C52.2814 36.9385 51.502 36.159 50.5444 36.159H48.8074ZM48.2195 32.6962C48.1305 32.6962 48.0369 32.6784 47.9478 32.6406C45.3914 31.5895 45.2422 29.445 45.1219 27.7236C44.9972 25.9198 44.848 24.8754 43.2446 24.401C42.8661 24.2897 42.6501 23.8911 42.7636 23.5125C42.875 23.1339 43.2736 22.9179 43.6522 23.0293C46.2844 23.8109 46.4313 25.9242 46.5494 27.6234C46.6785 29.4717 46.8411 30.6386 48.4934 31.3178C49.215 31.6162 48.9967 32.6962 48.2195 32.6962ZM51.9963 32.6962C51.9073 32.6962 51.8137 32.6784 51.7247 32.6406C49.1682 31.5895 49.019 29.445 48.8987 27.7236C48.774 25.9198 48.6248 24.8754 47.0215 24.401C46.6429 24.2897 46.4269 23.8911 46.5405 23.5125C46.6518 23.1339 47.0504 22.9179 47.429 23.0293C50.0612 23.8109 50.2081 25.9242 50.3262 27.6234C50.4553 29.4717 50.6179 30.6386 52.2703 31.3178C52.9918 31.6162 52.7735 32.6962 51.9963 32.6962ZM30.5669 37.7557C30.1705 37.7557 29.8499 37.4351 29.8499 37.0387V36.159H25.5074V43.0068H29.8499V42.1561C29.8499 41.7619 30.1705 41.4412 30.5669 41.4412C30.9611 41.4412 31.2818 41.7619 31.2818 42.1561V43.0068H47.3778V36.159H31.2818V37.0387C31.2818 37.4351 30.9611 37.7557 30.5669 37.7557ZM30.5669 41.1117C30.1705 41.1117 29.8499 40.791 29.8499 40.3968V38.8001C29.8499 38.406 30.1705 38.0853 30.5669 38.0853C30.9611 38.0853 31.2818 38.406 31.2818 38.8001V40.3968C31.2818 40.791 30.9611 41.1117 30.5669 41.1117ZM14.9319 43.0068H24.0778V36.159H14.9319V43.0068Z" fill="#131313"/>
<circle cx="34" cy="33.5" r="33" stroke="#131313"/>
</svg>
