<svg width="67" height="67" viewBox="0 0 67 67" fill="none" xmlns="http://www.w3.org/2000/svg">
<circle cx="33.5" cy="33.5" r="33" stroke="#131313"/>
<g clip-path="url(#clip0_151_490)">
<path d="M50.9593 43.315C50.6314 43.3188 50.6674 43.3029 50.2315 43.3334V33.1352C50.2315 32.0438 49.3435 31.1558 48.2521 31.1558H43.2548C43.2521 31.1558 43.2495 31.1554 43.2468 31.1554H37.4922V15.7922L42.2118 20.3543C42.4786 20.6122 42.6316 20.9729 42.6316 21.3439V28.8706C42.6316 29.2104 42.907 29.4858 43.2468 29.4858C43.5866 29.4858 43.862 29.2104 43.862 28.8706V21.3439C43.862 20.6412 43.5723 19.958 43.067 19.4696L37.3045 13.8995C37.1749 13.7779 36.9267 13.6688 36.6809 13.7586L26.3432 17.2335V14.8382C26.351 13.7915 25.4119 12.8806 24.3195 12.9441C23.2747 12.9441 22.4246 13.7937 22.4246 14.8382V18.5506L19.7199 19.4598C18.6575 19.817 17.9437 20.8099 17.9437 21.9307V43.3183C15.2059 43.3885 13 45.6358 13 48.3902V51.5187C13 52.368 13.6909 53.0589 14.5402 53.0589H53.4597C54.3091 53.0589 54.9999 52.3679 54.9999 51.5187V47.3556C55 45.1276 53.1874 43.315 50.9593 43.315ZM50.9593 44.5454C52.5089 44.5454 53.7695 45.8061 53.7695 47.3557V48.0011H47.8018V47.3557C47.8032 45.6739 49.2808 44.3998 50.9593 44.5454ZM49.0011 33.1352V43.6509C47.5726 44.2745 46.5713 45.6999 46.5713 47.3556V48.001H37.4922V32.3863H48.2521C48.6651 32.3863 49.0011 32.7223 49.0011 33.1352ZM23.655 14.8382C23.655 14.4722 23.9531 14.1745 24.3195 14.1745C24.6485 14.1262 25.0916 14.3842 25.1127 14.8382V17.6471L23.655 18.137V14.8382ZM17.9438 44.5477V48.0011H14.25C14.4414 46.106 16.0146 44.6128 17.9438 44.5477ZM14.2305 51.5188V49.2316H17.9438V51.8285H14.5403C14.3694 51.8285 14.2305 51.6895 14.2305 51.5188ZM19.1742 21.9307C19.1742 21.339 19.5511 20.8148 20.112 20.6262L36.2618 15.1977V18.5499L22.8438 23.0602C22.5217 23.1684 22.3484 23.5173 22.4566 23.8394C22.543 24.0965 22.7827 24.2588 23.0397 24.2588C23.1047 24.2588 23.1708 24.2484 23.2359 24.2265L36.2618 19.8481V22.978L22.8438 27.4883C22.5217 27.5966 22.3484 27.9454 22.4566 28.2675C22.543 28.5246 22.7827 28.6868 23.0397 28.6868C23.1047 28.6868 23.1708 28.6765 23.2359 28.6546L36.2618 24.2761V27.406L22.8438 31.9163C22.5217 32.0245 22.3484 32.3734 22.4566 32.6955C22.543 32.9526 22.7827 33.1149 23.0397 33.1149C23.1047 33.1149 23.1708 33.1045 23.2359 33.0826L36.2618 28.7042V31.7687C36.2618 31.7696 36.2617 31.7703 36.2617 31.7711V31.8342L22.8438 36.3444C22.5217 36.4526 22.3484 36.8015 22.4566 37.1236C22.543 37.3807 22.7827 37.5429 23.0397 37.5429C23.1047 37.5429 23.1708 37.5326 23.2359 37.5107L36.2616 33.1322V36.2622L27.8832 39.0785C27.5611 39.1867 27.3878 39.5355 27.4961 39.8577C27.5824 40.1148 27.8221 40.277 28.0791 40.277C28.1441 40.277 28.2102 40.2667 28.2753 40.2448L36.2616 37.5602V51.8284H30.9466V45.4355C30.9466 45.0165 30.7552 44.6308 30.4214 44.3774C30.0876 44.1241 29.6646 44.0434 29.2611 44.1561L23.5347 45.7547C22.8812 45.9372 22.4247 46.5385 22.4247 47.217V51.8284H19.1742V21.9307ZM23.6552 47.2171C23.6552 47.0885 23.7417 46.9745 23.8655 46.9399L26.0704 46.3244V51.8285H23.6551L23.6552 47.2171ZM27.3008 51.8285V45.9808L29.5919 45.3412C29.6228 45.3325 29.6517 45.3379 29.6774 45.3575C29.703 45.3771 29.7161 45.4033 29.7161 45.4356V51.8285H27.3008ZM37.4922 51.8285V49.2316H46.5713V51.8285H37.4922ZM53.7695 51.5188C53.7695 51.6896 53.6306 51.8285 53.4598 51.8285H47.8018V49.2316H53.7695V51.5188Z" fill="#131313"/>
<path d="M23.0396 41.9708C23.1046 41.9708 23.1707 41.9605 23.2358 41.9386L25.52 41.1708C25.8421 41.0626 26.0154 40.7137 25.9071 40.3916C25.7988 40.0694 25.45 39.896 25.1279 40.0045L22.8437 40.7723C22.5216 40.8805 22.3483 41.2294 22.4566 41.5515C22.5429 41.8085 22.7826 41.9708 23.0396 41.9708Z" fill="#131313"/>
<path d="M40.1865 37.4608H46.2199C46.7921 37.4608 47.2576 36.9954 47.2576 36.4233V34.9424C47.2576 34.3702 46.7921 33.9048 46.2199 33.9048H40.1865C39.6143 33.9048 39.1489 34.3702 39.1489 34.9424V36.4233C39.1489 36.9954 39.6144 37.4608 40.1865 37.4608ZM40.3794 35.1353H46.0271V36.2304H40.3794V35.1353Z" fill="#131313"/>
<path d="M40.1865 42.1391H46.2199C46.7921 42.1391 47.2576 41.6736 47.2576 41.1015V39.6205C47.2576 39.0484 46.7921 38.583 46.2199 38.583H40.1865C39.6143 38.583 39.1489 39.0485 39.1489 39.6205V41.1015C39.1489 41.6736 39.6144 42.1391 40.1865 42.1391ZM40.3794 39.8135H46.0271V40.9086H40.3794V39.8135Z" fill="#131313"/>
<path d="M40.1865 46.8651H42.1821C42.7543 46.8651 43.2197 46.3997 43.2197 45.8276V44.3467C43.2197 43.7745 42.7543 43.3091 42.1821 43.3091H40.1865C39.6143 43.3091 39.1489 43.7745 39.1489 44.3467V45.8276C39.1489 46.3997 39.6144 46.8651 40.1865 46.8651ZM40.3794 44.5396H41.9893V45.6347H40.3794V44.5396Z" fill="#131313"/>
</g>
<defs>
<clipPath id="clip0_151_490">
<rect width="42" height="42" fill="white" transform="translate(13 12)"/>
</clipPath>
</defs>
</svg>
